<?xml version="1.0" encoding="utf-8"?>
<!-- Generator: Adobe Illustrator 19.0.0, SVG Export Plug-In . SVG Version: 6.00 Build 0)  -->
<svg version="1.1" xmlns="http://www.w3.org/2000/svg" xmlns:xlink="http://www.w3.org/1999/xlink" x="0px" y="0px"
	 viewBox="12 326.6 636.1 140.4" style="enable-background:new 12 326.6 636.1 140.4;" xml:space="preserve">
<style type="text/css">
	.st0{display:none;}
	.st1{display:inline;fill:url(#SVGID_1_);}
	.st2{display:inline;fill:url(#SVGID_2_);}
	.st3{display:inline;fill:url(#SVGID_3_);}
	.st4{display:inline;fill:url(#SVGID_4_);}
	.st5{display:inline;fill:url(#SVGID_5_);}
	.st6{display:inline;fill:url(#SVGID_6_);}
	.st7{display:inline;}
	.st8{fill:url(#SVGID_7_);}
	.st9{fill:url(#SVGID_8_);}
	.st10{fill:url(#SVGID_9_);}
	.st11{fill:url(#XMLID_16_);stroke:#C8A5CD;stroke-miterlimit:10;}
	.st12{fill:url(#XMLID_21_);stroke:#C8A5CD;stroke-miterlimit:10;}
	.st13{fill:url(#XMLID_25_);stroke:#C8A5CD;stroke-miterlimit:10;}
	.st14{fill:url(#XMLID_26_);stroke:#C8A5CD;stroke-miterlimit:10;}
	.st15{fill:url(#XMLID_27_);stroke:#C8A5CD;stroke-miterlimit:10;}
	.st16{fill:url(#XMLID_28_);stroke:#C8A5CD;stroke-miterlimit:10;}
	.st17{fill:url(#XMLID_29_);stroke:#C8A5CD;stroke-miterlimit:10;}
	.st18{fill:url(#XMLID_30_);stroke:#C8A5CD;stroke-miterlimit:10;}
	.st19{fill:url(#XMLID_31_);stroke:#C8A5CD;stroke-miterlimit:10;}
	.st20{fill:url(#XMLID_35_);stroke:#C8A5CD;stroke-miterlimit:10;}
	.st21{fill:url(#XMLID_36_);stroke:#C8A5CD;stroke-miterlimit:10;}
	.st22{fill:url(#XMLID_37_);stroke:#C8A5CD;stroke-miterlimit:10;}
</style>
<g id="Layer_1" class="st0">
	
		<linearGradient id="SVGID_1_" gradientUnits="userSpaceOnUse" x1="-2.647" y1="414.3" x2="668.5567" y2="414.3" gradientTransform="matrix(1 0 0 -1 0 795.2)">
		<stop  offset="1.502404e-003" style="stop-color:#DA8CFF"/>
		<stop  offset="1" style="stop-color:#9A55FF"/>
	</linearGradient>
	<path class="st1" d="M214.9,391.8v38.1H191v-98h38.7c7.6,0,14.2,1.4,19.6,4.2c5.4,2.8,9.5,6.5,12.3,11c2.7,4.6,4.1,9.5,4.1,14.8
		c0,4.5-1.1,9-3.3,13.5c-2.2,4.5-6,8.4-11.4,11.6c-5.4,3.2-12.5,4.8-21.4,4.8H214.9z M238.3,370.4c2.1-2.1,3.1-5,3.1-8.5
		c0-3.4-1.1-6.3-3.2-8.5c-2.1-2.2-5-3.3-8.5-3.3h-14.8v23.5h14.8C233.4,373.6,236.2,372.6,238.3,370.4z"/>
	
		<linearGradient id="SVGID_2_" gradientUnits="userSpaceOnUse" x1="-2.647" y1="403.85" x2="668.5567" y2="403.85" gradientTransform="matrix(1 0 0 -1 0 795.2)">
		<stop  offset="1.502404e-003" style="stop-color:#DA8CFF"/>
		<stop  offset="1" style="stop-color:#9A55FF"/>
	</linearGradient>
	<path class="st2" d="M352.9,352v77.9H329v-11.5c-2.3,3.8-5.5,6.8-9.6,9c-4,2.2-8.7,3.3-14,3.3c-5.9,0-11-1.3-15.6-4
		c-4.5-2.7-8-6.5-10.6-11.5s-3.8-10.9-3.8-17.7V352h23.7v42.3c0,5,1.3,8.9,4,11.7c2.7,2.7,6.3,4.1,11,4.1s8.3-1.4,11-4.1
		s4-6.6,4-11.7V352H352.9z"/>
	
		<linearGradient id="SVGID_3_" gradientUnits="userSpaceOnUse" x1="-2.647" y1="404.65" x2="668.5567" y2="404.65" gradientTransform="matrix(1 0 0 -1 0 795.2)">
		<stop  offset="1.502404e-003" style="stop-color:#DA8CFF"/>
		<stop  offset="1" style="stop-color:#9A55FF"/>
	</linearGradient>
	<path class="st3" d="M407.3,355.3c3.8-2.7,8-4.1,12.7-4.1v24.3h-5.9c-5.5,0-9.6,1.3-12.4,3.9c-2.7,2.6-4.1,7.2-4.1,13.7v36.8h-23.9
		V352h23.9v14.5C400.3,361.8,403.5,358,407.3,355.3z"/>
	
		<linearGradient id="SVGID_4_" gradientUnits="userSpaceOnUse" x1="-2.647" y1="386.0021" x2="668.5567" y2="386.0021" gradientTransform="matrix(1 0 0 -1 0 795.2)">
		<stop  offset="1.502404e-003" style="stop-color:#DA8CFF"/>
		<stop  offset="1" style="stop-color:#9A55FF"/>
	</linearGradient>
	<path class="st4" d="M497.5,356.3c5.4,3.4,9.7,8.1,12.9,14.2c3.2,6,4.7,12.9,4.7,20.7c0,7.7-1.6,14.6-4.7,20.7
		c-3.2,6-7.5,10.7-12.9,14.1c-5.4,3.4-11.4,5-17.8,5c-9.7,0-17.3-4.1-22.9-12.3v48.4H433v-115h23.9v10.2c5.3-7.3,12.9-11,22.9-11
		C486.2,351.2,492.1,352.9,497.5,356.3z M465.7,374c-2.6,1.4-4.7,3.6-6.4,6.4c-1.6,2.8-2.4,6.4-2.4,10.5c0,4.2,0.8,7.7,2.4,10.6
		c1.6,2.9,3.8,5,6.4,6.5c2.7,1.4,5.4,2.2,8.2,2.2c2.9,0,5.6-0.7,8.2-2.2c2.6-1.4,4.7-3.6,6.3-6.4c1.6-2.8,2.4-6.4,2.4-10.5
		c0-4.2-0.8-7.7-2.4-10.6s-3.8-5-6.4-6.5c-2.7-1.4-5.4-2.2-8.2-2.2S468.3,372.5,465.7,374z"/>
	
		<linearGradient id="SVGID_5_" gradientUnits="userSpaceOnUse" x1="-2.647" y1="416.95" x2="668.5567" y2="416.95" gradientTransform="matrix(1 0 0 -1 0 795.2)">
		<stop  offset="1.502404e-003" style="stop-color:#DA8CFF"/>
		<stop  offset="1" style="stop-color:#9A55FF"/>
	</linearGradient>
	<path class="st5" d="M554.3,326.6v103.3h-23.9V326.6H554.3z"/>
	
		<linearGradient id="SVGID_6_" gradientUnits="userSpaceOnUse" x1="-2.647" y1="404.1" x2="668.5567" y2="404.1" gradientTransform="matrix(1 0 0 -1 0 795.2)">
		<stop  offset="1.502404e-003" style="stop-color:#DA8CFF"/>
		<stop  offset="1" style="stop-color:#9A55FF"/>
	</linearGradient>
	<path class="st6" d="M647.5,398.8h-53.6c0.5,3.4,2,6.3,4.6,8.4c2.6,2.2,5.9,3.3,9.8,3.3c3,0,5.2-0.4,6.7-1.3
		c1.5-0.9,3.1-2.3,4.7-4.4h25.8c-2.2,7.8-6.7,14.1-13.4,18.9c-6.7,4.8-14.7,7.2-23.9,7.2c-7.4,0-14.1-1.6-20-4.9s-10.5-7.9-13.8-14
		s-5-13.1-5-21.1s1.7-15,5-21s7.9-10.6,13.7-13.8c5.9-3.2,12.5-4.8,20-4.8s14.3,1.6,20.4,4.7c6,3.1,10.8,7.7,14.3,13.7
		s5.2,13.3,5.2,21.6C648.1,393.9,647.9,396.4,647.5,398.8z M623.2,383.8c-0.4-3.6-2-6.6-4.7-8.9c-2.8-2.3-6.2-3.4-10.3-3.4
		c-3.5,0-6.6,1.1-9.2,3.4c-2.6,2.3-4.2,5.2-4.9,8.9C594.1,383.8,623.2,383.8,623.2,383.8z"/>
	<g class="st7">
		<g>
			
				<linearGradient id="SVGID_7_" gradientUnits="userSpaceOnUse" x1="-2.647" y1="434.875" x2="668.5567" y2="434.875" gradientTransform="matrix(1 0 0 -1 0 795.2)">
				<stop  offset="1.502404e-003" style="stop-color:#DA8CFF"/>
				<stop  offset="1" style="stop-color:#9A55FF"/>
			</linearGradient>
			<path class="st8" d="M112.2,356.6l-47.1-23.5c-1.2-0.6-2.5-0.6-3.7,0l-47.1,23.5c-1.4,0.7-2.3,2.2-2.3,3.7c0,1.6,0.9,3,2.3,3.7
				l47.1,23.6c0.6,0.3,1.2,0.4,1.9,0.4c0.6,0,1.3-0.1,1.9-0.4l47.1-23.5c1.4-0.7,2.3-2.1,2.3-3.7
				C114.5,358.8,113.6,357.3,112.2,356.6z M63.2,379.3l-37.8-19l37.8-18.9l37.8,18.9L63.2,379.3z"/>
		</g>
	</g>
	<g class="st7">
		<g>
			
				<linearGradient id="SVGID_8_" gradientUnits="userSpaceOnUse" x1="-2.647" y1="376.014" x2="668.5567" y2="376.014" gradientTransform="matrix(1 0 0 -1 0 795.2)">
				<stop  offset="1.502404e-003" style="stop-color:#DA8CFF"/>
				<stop  offset="1" style="stop-color:#9A55FF"/>
			</linearGradient>
			<path class="st9" d="M114,405.6c-1-2-3.5-2.9-5.6-1.9l-45.2,22.7L18,403.7c-2-1-4.5-0.2-5.6,1.9c-1,2-0.2,4.5,1.9,5.6l47.1,23.5
				c0.6,0.3,1.2,0.4,1.9,0.4c0.6,0,1.3-0.1,1.9-0.4l47.1-23.5C114.2,410.1,115,407.6,114,405.6z"/>
		</g>
	</g>
	<g class="st7">
		<g>
			
				<linearGradient id="SVGID_9_" gradientUnits="userSpaceOnUse" x1="-2.647" y1="399.5554" x2="668.5567" y2="399.5554" gradientTransform="matrix(1 0 0 -1 0 795.2)">
				<stop  offset="1.502404e-003" style="stop-color:#DA8CFF"/>
				<stop  offset="1" style="stop-color:#9A55FF"/>
			</linearGradient>
			<path class="st10" d="M114,382c-1-2-3.5-2.9-5.6-1.9l-45.2,22.7L18,380.2c-2-1-4.5-0.2-5.6,1.9c-1,2-0.2,4.5,1.9,5.6l47.1,23.5
				c0.6,0.3,1.2,0.4,1.9,0.4c0.6,0,1.3-0.1,1.9-0.4l47-23.6C114.2,386.6,115,384.1,114,382z"/>
		</g>
	</g>
</g>
<g id="Layer_2">
	<g id="XMLID_2_">
		<linearGradient id="XMLID_16_" gradientUnits="userSpaceOnUse" x1="12" y1="389.1159" x2="127.311" y2="389.1159">
			<stop  offset="0" style="stop-color:#B878B2"/>
			<stop  offset="9.804779e-002" style="stop-color:#B36DAD"/>
			<stop  offset="0.4899" style="stop-color:#A0479C"/>
			<stop  offset="0.8043" style="stop-color:#943092"/>
			<stop  offset="1" style="stop-color:#90278E"/>
		</linearGradient>
		<path id="XMLID_32_" class="st11" d="M40.9,429.3c0-4.1,0.8-9.6,2.5-16.4c1.7-6.8,4.7-15.1,9.2-25c-1.7-0.9-3.3-2.3-4.9-3.9
			c-1.6-1.7-3-3.4-4.3-5.2c-0.4-0.7-0.3-1.7,0.2-2.9c0.5-1.2,1.6-3.4,3.4-6.5c1.6,1.7,3.2,3.3,4.7,4.7c1.6,1.4,3,2.4,4.5,3
			l14.3-28.2c-5.2,1.6-10.4,3.7-15.8,6.3c-5.4,2.6-10.4,5.5-15,8.9c-4.6,3.4-8.5,7.1-11.6,11.1c-3.2,4-5.2,8.4-5.9,13
			c-3.6-3.9-6.2-7.4-7.7-10.4c-1.5-3.1-2.3-6-2.3-8.8c0-4.8,1.4-9.1,4.2-13c2.8-3.8,6.5-7.2,11-10.1c4.5-2.9,9.6-5.4,15.3-7.5
			c5.7-2.1,11.4-3.7,17-5c5.7-1.3,11.1-2.2,16.2-2.8c5.1-0.6,9.5-0.9,13.1-0.9c2.3,0,4.8,0.2,7.6,0.5c2.8,0.3,5.6,0.8,8.5,1.5
			c2.9,0.7,5.7,1.7,8.4,2.9c2.7,1.2,5.1,2.7,7.2,4.5c2.1,1.8,3.7,3.9,5,6.4c1.2,2.5,1.9,5.3,1.9,8.6c0,4.4-1.4,8.9-4.1,13.5
			c-2.7,4.6-6.5,8.7-11.3,12.4c-4.8,3.7-10.6,6.7-17.3,9c-6.7,2.3-14,3.4-22,3.2c-2,4.6-3.8,9.2-5.5,13.8c-1.7,4.6-3,9.3-3.9,14.1
			c-0.9,4.7-1.5,9.5-1.7,14.3c-0.2,4.8,0.2,9.6,1.2,14.4c-2.8-0.8-5.5-1.5-8.1-2.3c-2.6-0.8-4.9-1.8-7-3.2c-2-1.4-3.7-3.1-4.9-5.3
			C41.5,435.6,40.9,432.8,40.9,429.3z M105.8,355.3c0-1.9-0.6-3.7-1.8-5.3c-1.2-1.6-3.1-2.9-5.8-3.9c-1.6,2.3-3.3,4.9-5,7.7
			c-1.7,2.8-3.4,5.7-5.1,8.6c-1.7,2.9-3.3,5.8-4.8,8.6c-1.6,2.8-2.9,5.4-4.1,7.8c3.6-0.3,6.9-1.3,10.2-2.9c3.2-1.6,6.1-3.5,8.5-5.7
			c2.5-2.2,4.4-4.6,5.9-7.2C105.1,360.3,105.8,357.8,105.8,355.3z"/>
		<linearGradient id="XMLID_21_" gradientUnits="userSpaceOnUse" x1="104.1267" y1="387.7563" x2="177.0148" y2="387.7563">
			<stop  offset="0" style="stop-color:#B878B2"/>
			<stop  offset="9.804779e-002" style="stop-color:#B36DAD"/>
			<stop  offset="0.4899" style="stop-color:#A0479C"/>
			<stop  offset="0.8043" style="stop-color:#943092"/>
			<stop  offset="1" style="stop-color:#90278E"/>
		</linearGradient>
		<path id="XMLID_4_" class="st12" d="M176.8,399.1c-0.4-1.3-1.2-2.2-2.2-2.7c-1.1-0.5-2.3-0.5-3.7,0.2c-1.4,0.6-2.8,2.1-4,4.4
			c-0.2,0.3-0.6,1-1.2,1.9c-0.6,0.9-1.2,2-2,3.3c-0.8,1.2-1.6,2.6-2.6,4c-0.9,1.4-1.8,2.8-2.7,4.1c-0.9,1.5-1.8,2.7-2.7,3.7
			c-0.9,1-1.6,1.7-2.2,2.1c-0.6,0.4-1,0.3-1.2-0.2c-0.2-0.5-0.2-1.7,0.1-3.5c0.2-1.2,0.6-2.8,1-4.8c0.5-2,1.2-4.9,2.4-8.9
			c2-7,2.6-12.9,2-17.5c-0.6-4.6-2.1-7.8-4.5-9.5c-2.3-1.8-5.3-2-8.9-0.8c-3.6,1.2-7.3,4.1-11.2,8.6c0.4-1.4,1.1-3.2,2-5.4
			c1-2.2,2.1-4.6,3.4-7.3c1.3-2.7,2.7-5.4,4.2-8.3c1.5-2.9,3-5.7,4.4-8.4c1.4-2.7,2.7-5.2,4-7.5c1.2-2.3,2.3-4.3,3-5.8
			c0.5-1.1,0.1-2.1-1.4-3c-1.5-0.9-3.3-1.6-5.3-2.1c-2.1-0.5-4.2-0.7-6.3-0.6c-2.1,0.1-3.6,0.5-4.3,1.3c-1.7,1.8-3.6,4.8-5.8,8.8
			c-0.8,1.5-1.6,3.1-2.5,4.8c0.4,1.6,0.6,3.3,0.6,5.2c0,4.4-1.4,8.9-4.1,13.5c-2.1,3.6-4.9,6.9-8.2,9.9c-2,5.7-3.9,11.5-5.6,17.2
			c-1.9,6.3-3.4,12.3-4.7,18.1c-1.3,5.8-2.1,10.9-2.4,15.4c0.3,1.4,0.7,2.5,1.3,3.4c0.6,0.9,1.5,1.7,2.7,2.4
			c1.2,0.7,2.9,1.4,4.9,2.1c2,0.7,4.6,1.5,7.7,2.6c-0.2-2-0.3-4.4-0.2-7.2c0.1-2.8,0.3-5.7,0.7-8.8c0.4-3.1,1-6.1,1.8-9.2
			c0.8-3.1,1.8-5.9,2.9-8.6c1.1-2.7,2.5-5,4-7c1.5-2,3.2-3.4,5.1-4.4c1.7-0.8,2.9-1.3,3.8-1.5c0.9-0.2,1.4-0.1,1.6,0.3
			c0.2,0.4,0.2,1.2-0.1,2.4c-0.3,1.2-0.8,2.7-1.4,4.7c-0.7,2-1.4,4.2-2.3,6.6c-0.8,2.5-1.6,5-2.3,7.5c-0.7,2.6-1.2,5.1-1.6,7.7
			c-0.4,2.5-0.6,4.9-0.4,7c0.1,1.1,0.3,2.2,0.6,3.3c0.3,1.1,0.9,2.1,1.5,3c0.7,0.9,1.6,1.7,2.7,2.5c1.1,0.7,2.5,1.3,4.1,1.6
			c4,0.8,7.6,0.3,10.7-1.3c3.1-1.6,6.1-4.1,8.8-7.5c2.7-3.4,5.3-7.4,7.8-12.3c2.5-4.8,5-10,7.7-15.6
			C177.1,401.8,177.2,400.3,176.8,399.1z"/>
		<linearGradient id="XMLID_25_" gradientUnits="userSpaceOnUse" x1="170.658" y1="408.0992" x2="233.7035" y2="408.0992">
			<stop  offset="0" style="stop-color:#B878B2"/>
			<stop  offset="9.804779e-002" style="stop-color:#B36DAD"/>
			<stop  offset="0.4899" style="stop-color:#A0479C"/>
			<stop  offset="0.8043" style="stop-color:#943092"/>
			<stop  offset="1" style="stop-color:#90278E"/>
		</linearGradient>
		<path id="XMLID_6_" class="st13" d="M233.5,399.1c-0.4-1.5-1.1-2.5-2.1-3.1c-1-0.6-2.2-0.6-3.5,0c-1.3,0.6-2.4,1.8-3.4,3.8
			c-0.4,0.5-0.8,1.3-1.4,2.4c-0.5,1.1-1.1,2.2-1.7,3.4c-0.6,1.2-1.3,2.5-2,3.7c-0.7,1.3-1.4,2.5-2.1,3.5c-0.3,0.4-0.7,0.9-1.3,1.3
			c-0.6,0.4-1.1,0.3-1.6-0.5c0.8-1.3,1.7-3.2,2.7-5.7c1-2.5,1.7-5.1,2.1-7.8c0.4-2.7,0.4-5.1-0.1-7.4c-0.5-2.3-1.7-3.8-3.7-4.7
			c-0.4-4.2-1.9-7.4-4.5-9.4c-2.6-2.1-5.7-3.1-9.4-3.1c-1.6,0-3.3,0.3-5.1,0.8c-1.8,0.5-3.6,1.4-5.6,2.8c-1.9,1.3-3.9,3.2-6,5.5
			c-2.1,2.4-4.2,5.4-6.4,9c-0.5,0.9-1,1.8-1.4,2.8c0.8,0.5,1.4,1.3,1.7,2.4c0.4,1.3,0.3,2.7-0.4,4.3c-2.6,5.6-5.2,10.8-7.6,15.6
			c-0.2,1.8-0.2,3.5-0.1,5.2c0.3,3.4,1.3,6.6,3,9.3c1.7,2.8,4.4,5,8,6.5h-0.1c2.3,1.1,4.7,1.5,7.2,1.2c2.5-0.3,4.9-1.2,7.3-2.5
			c2.3-1.3,4.5-2.9,6.6-4.8c2-1.9,3.8-4,5.2-6.1c2.9,1.5,5.8,1.7,8.7,0.7c2.9-1,5.4-3,7.3-6c0.7-1.1,1.3-2.2,1.9-3.4
			c0.6-1.1,1.2-2.3,1.9-3.7c0.6-1.3,1.4-2.8,2.2-4.5c0.8-1.7,1.7-3.6,2.8-5.9C233.6,402.4,233.9,400.6,233.5,399.1z M198.6,397.5
			c-1.1,1.8-1.8,3.8-2.1,5.9c-0.3,2.1-0.3,4.4,0.1,6.7c0.4,2.3,1.2,4.6,2.2,6.7c-0.5,0.9-1.1,1.8-1.7,2.8c-0.6,1-1.2,2-1.9,3
			c-0.6,0.9-1.3,1.7-1.9,2.4c-0.6,0.6-1.2,1-1.6,1c-1.4,0-2.3-0.8-2.8-2.5c-0.5-1.7-0.6-3.8-0.4-6.3c0.2-2.5,0.7-5.3,1.4-8.2
			c0.7-2.9,1.6-5.7,2.7-8.3c1.1-2.6,2.2-4.8,3.5-6.6c1.2-1.8,2.5-2.8,3.7-3c0.2,0.4,0.6,0.8,1.1,1c0.5,0.3,1.1,0.6,1.7,0.9h0.6
			C201.1,394.2,199.6,395.7,198.6,397.5z"/>
		<linearGradient id="XMLID_26_" gradientUnits="userSpaceOnUse" x1="266.9972" y1="407.3758" x2="330.0336" y2="407.3758">
			<stop  offset="0" style="stop-color:#B878B2"/>
			<stop  offset="9.804779e-002" style="stop-color:#B36DAD"/>
			<stop  offset="0.4899" style="stop-color:#A0479C"/>
			<stop  offset="0.8043" style="stop-color:#943092"/>
			<stop  offset="1" style="stop-color:#90278E"/>
		</linearGradient>
		<path id="XMLID_10_" class="st14" d="M329.9,398.4c-0.4-1.5-1.1-2.5-2.1-3.1c-1-0.6-2.2-0.6-3.5,0c-1.3,0.6-2.4,1.8-3.4,3.8
			c-0.4,0.5-0.8,1.3-1.4,2.4c-0.5,1.1-1.1,2.2-1.7,3.4c-0.6,1.2-1.3,2.5-2,3.7c-0.7,1.3-1.4,2.5-2.1,3.5c-0.3,0.4-0.7,0.9-1.3,1.3
			c-0.6,0.4-1.1,0.3-1.6-0.5c0.8-1.3,1.7-3.2,2.7-5.7c1-2.5,1.7-5.1,2.1-7.8c0.4-2.7,0.4-5.1-0.1-7.4c-0.5-2.3-1.7-3.8-3.7-4.7
			c-0.4-4.2-1.9-7.4-4.5-9.4s-5.7-3.1-9.4-3.1c-1.6,0-3.3,0.3-5.1,0.8c-1.8,0.5-3.6,1.4-5.6,2.8c-1.9,1.3-3.9,3.2-6,5.5
			c-2.1,2.4-4.2,5.4-6.4,9c-0.8,1.5-1.6,3.1-2.4,4.8c0.7,0.1,1.4,0.4,2,0.9c0.9,0.8,1.6,1.9,1.9,3.4c0.3,1.5,0.1,2.9-0.7,4.3
			c-1.7,3-3.6,6.3-5.5,10c-1,1.9-2.1,3.7-3.2,5.5c0,0.5,0,0.9,0.1,1.4c0.3,3.4,1.3,6.6,3,9.3c1.7,2.8,4.4,5,8,6.5H278
			c2.3,1.1,4.7,1.5,7.2,1.2c2.5-0.3,4.9-1.2,7.3-2.5c2.3-1.3,4.5-2.9,6.6-4.8c2-1.9,3.8-4,5.2-6.1c2.9,1.5,5.8,1.7,8.7,0.7
			c2.9-1,5.4-3,7.3-6c0.7-1.1,1.3-2.2,1.9-3.4c0.6-1.1,1.2-2.3,1.9-3.7c0.6-1.3,1.4-2.8,2.2-4.5c0.8-1.7,1.7-3.6,2.8-5.9
			C330,401.7,330.3,399.9,329.9,398.4z M294.9,396.7c-1.1,1.8-1.8,3.8-2.1,5.9c-0.3,2.1-0.3,4.4,0.1,6.7c0.4,2.3,1.2,4.6,2.2,6.7
			c-0.5,0.9-1.1,1.8-1.7,2.8c-0.6,1-1.2,2-1.9,3c-0.6,0.9-1.3,1.7-1.9,2.4c-0.6,0.6-1.2,1-1.6,1c-1.4,0-2.3-0.8-2.8-2.5
			c-0.5-1.7-0.6-3.8-0.4-6.3c0.2-2.5,0.7-5.3,1.4-8.2c0.7-2.9,1.6-5.7,2.7-8.3c1.1-2.6,2.2-4.8,3.5-6.6c1.2-1.8,2.5-2.8,3.7-3
			c0.2,0.4,0.6,0.8,1.1,1c0.5,0.3,1.1,0.6,1.7,0.9h0.6C297.5,393.5,295.9,394.9,294.9,396.7z"/>
		<linearGradient id="XMLID_27_" gradientUnits="userSpaceOnUse" x1="225.7421" y1="396.9478" x2="274.1679" y2="396.9478">
			<stop  offset="0" style="stop-color:#B878B2"/>
			<stop  offset="9.804779e-002" style="stop-color:#B36DAD"/>
			<stop  offset="0.4899" style="stop-color:#A0479C"/>
			<stop  offset="0.8043" style="stop-color:#943092"/>
			<stop  offset="1" style="stop-color:#90278E"/>
		</linearGradient>
		<path id="XMLID_5_" class="st15" d="M274,402.3c-0.3-1.5-1-2.6-1.9-3.4c-0.9-0.8-2-1.1-3.3-0.8c-1.2,0.2-2.4,1.3-3.4,3.3
			c-1.6,2.9-3.2,5.5-4.7,7.9c-1.6,2.3-3,4.3-4.2,6c-1.2,1.7-2.3,3-3.2,3.9c-0.9,0.9-1.5,1.5-1.8,1.7c-1.5,1.2-2.7,1.8-3.6,1.9
			c-0.9,0-1.5-0.3-1.9-1c-0.4-0.7-0.6-1.7-0.6-3c0-1.2,0.1-2.6,0.2-4.1c0.2-2.4,0.8-4.9,1.7-7.5c0.9-2.6,1.9-5.2,2.9-7.6
			c1-2.5,2-4.7,3-6.7c1-2,1.7-3.6,2.2-4.7c0.8,0,1.6,0,2.7,0.1c1,0.1,1.8,0,2.3-0.1c0.8-0.1,1.6-0.5,2.4-1.2
			c0.9-0.7,1.6-1.6,2.3-2.6c0.7-1,1.2-2,1.6-3c0.4-1,0.6-1.9,0.5-2.7c-0.1-0.7-0.5-1.2-1.2-1.4c-0.7-0.3-2.5-0.4-5.3-0.4
			c1.4-3.2,2.5-5.8,3.5-8c1-2.1,1.8-3.9,2.4-5.4c0.6-1.4,1.1-2.5,1.4-3.2c0.3-0.7,0.5-1.3,0.7-1.6c-0.1-1-0.7-1.9-1.8-2.6
			c-1.1-0.7-2.5-1.2-4.1-1.6c-1.6-0.4-3.4-0.6-5.3-0.7c-1.9-0.1-3.8,0-5.5,0.2c-1.7,0.2-3.3,0.5-4.5,1c-1.3,0.4-2.1,0.9-2.5,1.5
			c1,0.4,1.8,1,2.3,1.8c0.6,0.8,0.5,2.2-0.2,4.4c-0.8,2.3-1.8,4.6-2.8,7c-1,2.3-2.1,4.7-3.1,7.2h-3.6c-0.6,0-1.4,0.6-2.3,1.8
			c-0.9,1.2-1.7,2.5-2.3,3.9s-0.9,2.7-1,3.9c0,1.2,0.6,1.7,1.8,1.7h2.8c-0.8,1.9-1.8,4.1-2.9,6.6c-0.2,0.5-0.4,1-0.6,1.5
			c0.9,0.6,1.6,1.6,1.9,3c0.4,1.5,0.1,3.3-0.9,5.5c-1.1,2.2-2,4.2-2.8,5.9c-0.8,1.7-1.5,3.2-2.2,4.5c-0.6,1.3-1.3,2.6-1.9,3.7
			c-0.5,0.9-1,1.9-1.6,2.8c-0.6,6,0.3,10.6,2.4,13.7c2.3,3.3,6,5,11.2,5c0.6,0,1.2,0,1.7-0.1c0.5-0.1,1.1-0.2,1.6-0.3
			c3.9-0.6,7.4-2.1,10.4-4.5c3-2.4,5.7-5.2,8.1-8.4c2.4-3.2,4.5-6.7,6.5-10.3c1.9-3.7,3.8-7,5.5-10
			C274.1,405.2,274.4,403.8,274,402.3z"/>
		<linearGradient id="XMLID_28_" gradientUnits="userSpaceOnUse" x1="323.0197" y1="404.2373" x2="379.6391" y2="404.2373">
			<stop  offset="0" style="stop-color:#B878B2"/>
			<stop  offset="9.804779e-002" style="stop-color:#B36DAD"/>
			<stop  offset="0.4899" style="stop-color:#A0479C"/>
			<stop  offset="0.8043" style="stop-color:#943092"/>
			<stop  offset="1" style="stop-color:#90278E"/>
		</linearGradient>
		<path id="XMLID_7_" class="st16" d="M379.2,404.8c-0.6-1.2-1.5-2-2.6-2.5c-1.1-0.5-2.4-0.4-3.7,0.1c-1.3,0.6-2.4,1.9-3.4,4.1
			c-0.2,0.3-0.5,0.8-1,1.7c-0.5,0.9-1.1,2-1.8,3.2c-0.7,1.2-1.4,2.5-2.2,3.8c-0.8,1.3-1.6,2.5-2.3,3.5c-0.4,0.4-0.7,0.9-1,1.3
			c-0.3,0.4-0.6,0.9-0.9,1.3c-0.3,0.3-0.6,0.4-0.8,0.5c-0.2,0.1-0.6-0.1-1-0.5c-0.9-0.7-1.2-1.9-1-3.7c0.2-1.8,0.7-3.6,1.5-5.6
			c0.7-2.1,1.5-4,2.5-5.9c1-1.8,2-3.7,3.1-5.5c1.1-1.8,2.1-3.7,3.1-5.7c1-1.9,1.9-3.9,2.8-6c0.2-1.1-0.5-2.3-2.1-3.5
			c-1.6-1.2-3.5-2.3-5.6-3.2c-2.1-0.9-4.1-1.5-6.1-1.7c-2-0.3-3.2,0-3.7,0.8l-2.6,3.5c0.5-1.3,0.9-2.8,1.5-4.6
			c0.5-1.8,0.8-3.5,0.9-5.2c0-1.7-0.3-3.2-1-4.6c-0.7-1.4-2.1-2.3-4-2.8c-1.4-0.4-3-0.2-4.5,0.8c-1.6,0.9-3.1,2.3-4.6,4.1
			c-1.5,1.8-2.8,3.8-4.1,6.1c-1.2,2.3-2.3,4.7-3,7.2c-0.8,2.5-1.2,4.8-1.4,7.1c-0.1,1.5,0,2.9,0.3,4.1c0.4,0.5,0.7,1.2,0.9,2
			c0.4,1.5,0.1,3.3-0.9,5.5c-1.1,2.2-2,4.2-2.8,5.9c-0.8,1.7-1.5,3.2-2.2,4.5c-0.6,1.3-1.3,2.6-1.9,3.7c-0.2,0.3-0.3,0.6-0.5,0.9
			c0.4,0.9,1.1,1.5,1.9,1.9c1.1,0.5,2.3,0.4,3.6-0.1c1.3-0.6,2.4-1.8,3.4-3.7c1.6-2.7,2.8-4.7,3.6-6.1c0.8-1.4,1.4-2.5,1.9-3.2
			c0.5-0.8,0.9-1.5,1.3-2.2c0.4-0.7,0.9-1.7,1.7-3.1c1.1,0.1,1.9,0,2.7-0.3c0.7-0.3,1.6-0.6,2.7-0.8c-1.7,3.8-3.2,7.6-4.6,11.4
			c-1.4,3.8-2,8-1.9,12.6c0.2,3.8,0.8,7.1,2,9.9c1.2,2.8,3.4,4.6,6.8,5.2c2.7,0.5,5.1,0.3,7.4-0.6c2.3-0.9,4.5-2.4,6.5-4.3
			c3.4-3.2,6.5-7.3,9.3-12.3c2.8-5,5.4-10,7.8-15C379.8,407.2,379.8,406,379.2,404.8z"/>
		<linearGradient id="XMLID_29_" gradientUnits="userSpaceOnUse" x1="373.3092" y1="408.8788" x2="444.9754" y2="408.8788">
			<stop  offset="0" style="stop-color:#B878B2"/>
			<stop  offset="9.804779e-002" style="stop-color:#B36DAD"/>
			<stop  offset="0.4899" style="stop-color:#A0479C"/>
			<stop  offset="0.8043" style="stop-color:#943092"/>
			<stop  offset="1" style="stop-color:#90278E"/>
		</linearGradient>
		<path id="XMLID_12_" class="st17" d="M444.7,399.6c-0.5-1.4-1.2-2.4-2.3-2.9c-1.1-0.5-2.4-0.4-3.8,0.4c-1.4,0.8-2.8,2.5-4.1,5.3
			c-0.2,0.4-0.6,1.1-1.1,2.1c-0.5,1-1.1,2.1-1.8,3.4c-0.7,1.2-1.4,2.6-2.2,3.9c-0.8,1.4-1.5,2.6-2.3,3.7c-0.8,1.2-1.6,2.4-2.4,3.5
			c-0.9,1.1-1.6,1.8-2.3,2.1c-0.6,0.3-1.1-0.1-1.5-1.1c-0.3-1-0.4-3-0.2-6c0.2-3.2,0.8-6.7,1.8-10.6c1-3.9,2.2-7.9,3.7-12
			c-0.4-1.1-1.2-2.3-2.5-3.6c-1.3-1.3-2.7-2-4.2-2.2c-0.2-1.5-0.7-2.9-1.6-3.9c-0.9-1.1-2-2-3.4-2.6c-1.3-0.7-2.7-1.2-4.2-1.5
			c-1.5-0.3-2.8-0.5-4-0.5c-1.7,0-3.5,0.3-5.4,0.8c-1.9,0.6-4,1.5-6.1,3c-2.1,1.4-4.3,3.3-6.5,5.7c-2.2,2.4-4.4,5.4-6.5,9
			c-1.3,2.3-2.5,4.6-3.5,6.8c1,0.5,1.8,1.3,2.4,2.3c0.6,1.2,0.6,2.4-0.1,3.7c-2.3,4.8-4.9,9.6-7.5,14.5c0,0.7,0,1.4,0,2.1
			c0.4,3.9,1.6,7.1,3.5,9.8c2,2.7,4.7,4.5,8.3,5.4c1.9,0.4,3.8,0.4,5.7-0.2c1.9-0.6,3.8-1.4,5.6-2.5c1.8-1.1,3.5-2.5,5.1-4
			c1.6-1.5,3.1-3.1,4.4-4.6c0,2.8,0.9,4.9,2.8,6.6c1.9,1.6,4,2.5,6.5,2.5c2,0,3.9-0.4,5.7-1.1c1.7-0.7,3.4-1.7,4.9-3
			c1.5-1.2,2.9-2.7,4.2-4.4c1.3-1.7,2.5-3.5,3.7-5.4c2-3.2,3.8-6.4,5.5-9.8c1.7-3.4,3.4-6.7,5.1-10.1
			C445,402.6,445.2,401.1,444.7,399.6z M413.1,391.5c-0.9,1.8-2,4-3.4,6.5c-1.3,2.5-2.7,5.2-4.2,7.9c-1.5,2.7-3,5.3-4.6,7.9
			c-1.6,2.5-3,4.7-4.4,6.6c-1.3,1.8-2.5,3.2-3.5,4.2c-1,0.9-1.6,1.1-1.9,0.5c-0.5-0.7-0.7-1.9-0.8-3.5c-0.1-1.7,0.2-3.6,0.7-5.8
			c0.5-2.2,1.3-4.6,2.4-7.1c1.1-2.5,2.5-5,4.3-7.4c2.7-4,5-6.9,7.1-9c2.1-2,3.8-3.4,5.1-4.1c0.9-0.5,1.8-0.5,2.8,0.1
			C413.7,388.7,413.8,389.8,413.1,391.5z"/>
		<linearGradient id="XMLID_30_" gradientUnits="userSpaceOnUse" x1="436.9275" y1="396.9478" x2="485.3529" y2="396.9478">
			<stop  offset="0" style="stop-color:#B878B2"/>
			<stop  offset="9.804779e-002" style="stop-color:#B36DAD"/>
			<stop  offset="0.4899" style="stop-color:#A0479C"/>
			<stop  offset="0.8043" style="stop-color:#943092"/>
			<stop  offset="1" style="stop-color:#90278E"/>
		</linearGradient>
		<path id="XMLID_11_" class="st18" d="M485.2,402.3c-0.3-1.5-1-2.6-1.9-3.4c-0.9-0.8-2-1.1-3.3-0.8c-1.2,0.2-2.4,1.3-3.4,3.3
			c-1.6,2.9-3.2,5.5-4.7,7.9c-1.6,2.3-3,4.3-4.2,6c-1.2,1.7-2.3,3-3.2,3.9c-0.9,0.9-1.5,1.5-1.8,1.7c-1.5,1.2-2.7,1.8-3.6,1.9
			c-0.9,0-1.5-0.3-1.9-1c-0.4-0.7-0.6-1.7-0.6-3c0-1.2,0.1-2.6,0.2-4.1c0.2-2.4,0.8-4.9,1.7-7.5c0.9-2.6,1.9-5.2,2.9-7.6
			c1-2.5,2-4.7,3-6.7c1-2,1.7-3.6,2.2-4.7c0.8,0,1.6,0,2.7,0.1c1,0.1,1.8,0,2.3-0.1c0.8-0.1,1.6-0.5,2.4-1.2
			c0.9-0.7,1.6-1.6,2.3-2.6c0.7-1,1.2-2,1.6-3c0.4-1,0.6-1.9,0.5-2.7c-0.1-0.7-0.5-1.2-1.2-1.4c-0.7-0.3-2.5-0.4-5.3-0.4
			c1.4-3.2,2.5-5.8,3.5-8c1-2.1,1.8-3.9,2.4-5.4c0.6-1.4,1.1-2.5,1.4-3.2c0.3-0.7,0.5-1.3,0.7-1.6c-0.1-1-0.7-1.9-1.8-2.6
			c-1.1-0.7-2.5-1.2-4.1-1.6c-1.6-0.4-3.4-0.6-5.3-0.7c-1.9-0.1-3.8,0-5.5,0.2c-1.7,0.2-3.3,0.5-4.5,1c-1.3,0.4-2.1,0.9-2.5,1.5
			c1,0.4,1.8,1,2.3,1.8c0.6,0.8,0.5,2.2-0.2,4.4c-0.8,2.3-1.8,4.6-2.8,7c-1,2.3-2.1,4.7-3.1,7.2H449c-0.6,0-1.4,0.6-2.3,1.8
			c-0.9,1.2-1.7,2.5-2.3,3.9c-0.6,1.4-0.9,2.7-1,3.9c0,1.2,0.6,1.7,1.8,1.7h2.8c-0.8,1.9-1.8,4.1-2.9,6.6c-0.2,0.5-0.5,1.1-0.7,1.6
			c0,0,0,0,0,0c1.1,0.5,1.9,1.5,2.3,2.9c0.5,1.4,0.3,3-0.3,4.7c-1.7,3.4-3.4,6.7-5.1,10.1c-1.3,2.6-2.7,5.2-4.2,7.8
			c-0.5,5.9,0.3,10.3,2.5,13.4c2.3,3.3,6,5,11.2,5c0.6,0,1.2,0,1.7-0.1c0.5-0.1,1.1-0.2,1.6-0.3c3.9-0.6,7.4-2.1,10.4-4.5
			c3-2.4,5.7-5.2,8.1-8.4c2.4-3.2,4.5-6.7,6.5-10.3c1.9-3.7,3.8-7,5.5-10C485.3,405.2,485.5,403.8,485.2,402.3z"/>
		<g id="XMLID_3_">
			<linearGradient id="XMLID_31_" gradientUnits="userSpaceOnUse" x1="500.804" y1="364.4583" x2="519.3761" y2="364.4583">
				<stop  offset="0" style="stop-color:#B878B2"/>
				<stop  offset="9.804779e-002" style="stop-color:#B36DAD"/>
				<stop  offset="0.4899" style="stop-color:#A0479C"/>
				<stop  offset="0.8043" style="stop-color:#943092"/>
				<stop  offset="1" style="stop-color:#90278E"/>
			</linearGradient>
			<path id="XMLID_15_" class="st19" d="M504.6,372.1c1.4,1.2,3,2,4.8,2.5c1.7,0.5,3,0.2,3.9-1l5.6-10.4c0.1-0.1,0.2-0.3,0.3-0.6
				c0.2-0.3,0.2-0.8,0.2-1.2c0-0.5-0.2-1-0.5-1.5c-0.3-0.6-0.8-1.1-1.6-1.6h0.2c-1.5-1.2-3-2.2-4.4-2.9c-1.4-0.7-3-1.1-4.7-1.1
				c-2.6,0-4.2,0.6-5,1.8c-0.8,1.1-1.5,2.4-1.9,3.8c-0.4,1.4-0.7,2.8-0.7,4.2c-0.2,1.6,0,3.1,0.5,4.4
				C501.9,369.7,502.9,370.9,504.6,372.1z"/>
			<linearGradient id="XMLID_35_" gradientUnits="userSpaceOnUse" x1="479.338" y1="407.2587" x2="523.4118" y2="407.2587">
				<stop  offset="0" style="stop-color:#B878B2"/>
				<stop  offset="9.804779e-002" style="stop-color:#B36DAD"/>
				<stop  offset="0.4899" style="stop-color:#A0479C"/>
				<stop  offset="0.8043" style="stop-color:#943092"/>
				<stop  offset="1" style="stop-color:#90278E"/>
			</linearGradient>
			<path id="XMLID_20_" class="st20" d="M523.2,398.9c-0.4-1.5-1.2-2.5-2.2-3.1c-1.1-0.6-2.3-0.6-3.7,0c-1.4,0.6-2.8,2.2-4,4.6
				c-1.4,2.9-3.1,6-5.1,9.3c-2,3.3-3.9,6-5.8,8.3c-1,1.2-1.9,2.1-2.6,2.7c-0.8,0.6-1.4,0.8-1.8,0.7c-0.5-0.1-0.7-0.7-0.8-1.7
				c-0.1-1,0.1-2.5,0.6-4.4c0.5-2.6,1.4-5.6,2.7-9c1.3-3.4,2.7-6.8,4.2-10.2c1.5-3.4,3-6.5,4.5-9.3c1.5-2.9,2.8-5.1,4-6.6
				c-0.3-0.4-1-0.9-2.2-1.5c-1.1-0.6-2.5-1.2-4.2-1.7c-1.7-0.5-3.5-0.9-5.5-1.2c-2-0.3-4-0.3-6.1-0.1c-1.4,3-3,6.7-4.9,11
				c-1.7,3.7-3.2,7.5-4.7,11.5c0.9,0.8,1.6,1.9,1.9,3.3c0.3,1.5,0.1,2.9-0.7,4.3c-1.7,3-3.6,6.3-5.5,10c-0.4,0.8-0.9,1.6-1.3,2.4
				c-0.5,3.1-0.7,5.9-0.5,8.6c0.4,3.9,1.7,6.9,3.9,9.2c2.2,2.2,5.1,3.4,8.7,3.4c3.4,0,6.5-0.9,9.1-2.6c2.7-1.8,5.2-4.2,7.6-7.4
				c2.3-3.1,4.6-6.9,6.9-11.3c2.2-4.4,4.6-9.2,7.1-14.4C523.4,401.9,523.6,400.4,523.2,398.9z"/>
			<linearGradient id="XMLID_36_" gradientUnits="userSpaceOnUse" x1="512.7625" y1="406.2127" x2="586.4819" y2="406.2127">
				<stop  offset="0" style="stop-color:#B878B2"/>
				<stop  offset="9.804779e-002" style="stop-color:#B36DAD"/>
				<stop  offset="0.4899" style="stop-color:#A0479C"/>
				<stop  offset="0.8043" style="stop-color:#943092"/>
				<stop  offset="1" style="stop-color:#90278E"/>
			</linearGradient>
			<path id="XMLID_19_" class="st21" d="M586.4,399.6c-0.3-1.5-0.9-2.7-1.8-3.4c-0.9-0.7-2.1-0.8-3.6-0.3c-1.4,0.5-2.8,1.9-4.2,4.3
				c-1.2,2.3-2.5,4.7-4,7.1c-1.4,2.4-2.9,4.7-4.4,7c-1.1,1.5-2.1,2.8-3,3.7c-0.9,0.9-1.5,1.3-2,1.2c-0.5-0.1-0.7-0.9-0.6-2.4
				c0-1.5,0.4-3.8,1.2-7c0.6-2.2,1.3-4.5,2.2-6.8c0.8-2.3,1.6-4.6,2.2-6.9c0.6-2.3,1.1-4.7,1.3-7.1c0.2-2.4,0-4.9-0.7-7.4
				c-0.8-2.7-2.2-4.6-4.1-5.7c-1.9-1.2-4.1-1.8-6.4-1.9c-2.3-0.1-4.7,0.2-7,1c-2.3,0.8-4.4,1.9-6,3.2c0.1-0.5,0.2-0.9,0.3-1.1
				c0.1-0.2,0.2-0.4,0.2-0.6c0.1-0.6-0.3-1.1-1.1-1.5c-0.8-0.4-1.8-0.7-3-0.9c-1.2-0.2-2.6-0.3-4-0.3c-1.5,0-2.9,0.1-4.2,0.2
				c-1.3,0.1-2.5,0.3-3.4,0.6c-0.9,0.3-1.5,0.6-1.6,0.9h0.2c-0.2,0.3-0.8,1.5-1.6,3.7c-0.9,2.2-1.9,4.9-3,8.2
				c-0.8,2.3-1.6,4.8-2.5,7.5c0.7,0,1.3,0.1,1.9,0.4c1.1,0.6,1.8,1.6,2.2,3.1c0.4,1.5,0.2,3-0.5,4.5c-2.5,5.2-4.9,10.1-7.1,14.4
				c-1.6,3.1-3.2,5.9-4.9,8.4c0,0.3,0,0.5,0,0.8c-0.6,2.6-0.3,4.7,1,6.3c1.2,1.6,2.9,2.8,4.8,3.7c2,0.9,4,1.4,6.1,1.7
				c2.1,0.3,3.8,0.5,5,0.5c0.2-3.3,0.7-6.8,1.5-10.7s1.7-7.8,2.8-11.7c1.1-3.9,2.4-7.6,3.8-11.2c1.4-3.5,2.9-6.5,4.5-9
				c1.6-2.5,3.1-4.3,4.7-5.5c1.6-1.2,3.1-1.4,4.7-0.5c0.7,0.4,1,1.2,0.9,2.3c-0.1,1.1-0.4,2.4-1,4c-0.5,1.6-1.2,3.4-2,5.4
				c-0.8,2-1.6,4-2.4,6.2c-1.3,4.1-2.3,8.2-3,12.2c-0.7,4-0.6,7.5,0.4,10.5c0.9,2.9,2.4,5,4.4,6.3c2,1.2,4.3,1.8,6.6,1.7
				c2.4-0.1,4.8-0.7,7.2-1.8c2.4-1.1,4.4-2.6,6.1-4.5c1.6-1.9,3-3.8,4.3-5.7c1.3-1.9,2.6-3.9,3.8-6.1c1.2-2.2,2.5-4.6,3.8-7.2
				c1.3-2.6,2.7-5.5,4.3-8.8C586.3,402.8,586.7,401.1,586.4,399.6z"/>
			<linearGradient id="XMLID_37_" gradientUnits="userSpaceOnUse" x1="583.2303" y1="417.8914" x2="649.1" y2="417.8914">
				<stop  offset="0" style="stop-color:#B878B2"/>
				<stop  offset="9.804779e-002" style="stop-color:#B36DAD"/>
				<stop  offset="0.4899" style="stop-color:#A0479C"/>
				<stop  offset="0.8043" style="stop-color:#943092"/>
				<stop  offset="1" style="stop-color:#90278E"/>
			</linearGradient>
			<path id="XMLID_24_" class="st22" d="M648.9,386.6c-0.4-1.3-1.2-2.3-2.3-2.8c-1.1-0.5-2.3-0.5-3.6-0.1c-1.3,0.5-2.4,1.6-3.1,3.4
				c-0.2,0.4-0.7,1.5-1.7,3.3c-1,1.8-2.1,3.7-3.4,5.9c-1.2,2.2-2.5,4.3-3.7,6.3c-1.2,2-2.1,3.5-2.7,4.4c0.4-2,1-4.2,1.9-6.6
				c0.9-2.4,1.8-4.9,2.7-7.4c0.9-2.5,1.8-4.9,2.6-7.3c0.8-2.4,1.3-4.5,1.5-6.4c-0.5-1.4-1.6-2.8-3.2-4.3c-1.6-1.5-3.3-2.4-5-2.6
				c0-1.9-0.4-3.4-1.2-4.6c-0.8-1.2-1.9-2.1-3.1-2.7c-1.2-0.6-2.6-1.1-4.1-1.3c-1.5-0.2-3-0.3-4.3-0.3c-1.6,0-3.4,0.3-5.3,0.8
				c-1.9,0.6-4,1.5-6.1,3c-2.1,1.4-4.3,3.3-6.6,5.7c-2.3,2.4-4.5,5.4-6.6,9c-1.2,2.1-2.4,4.6-3.6,7.4c-0.9,2.1-1.7,4.2-2.4,6.4
				c0.3,0.1,0.5,0.2,0.8,0.4c0.9,0.7,1.6,1.8,1.8,3.4c0.3,1.5-0.1,3.2-1,4.9c-1.4,2.8-2.7,5.4-3.8,7.7c0.1,0.9,0.3,1.8,0.5,2.6
				c0.7,2.6,1.9,4.9,3.6,7c1.7,2.1,4.2,3.7,7.5,4.9c2.6,0.4,5.1,0.2,7.4-0.6c2.4-0.9,4.7-2.2,6.9-4c-3.1,4.8-5.9,9.3-8.5,13.6
				c-2.6,4.3-4.7,8.3-6.4,12c-1.7,3.7-2.9,7.2-3.6,10.3c-0.7,3.1-0.7,6,0,8.4c0.7,1.8,1.9,3.2,3.6,4.1c1.7,0.9,3.5,1.4,5.5,1.4
				s3.8-0.4,5.6-1.2c1.8-0.8,3.1-2.1,4-3.8c3.2-8.3,5.7-14.8,7.5-19.6c1.8-4.8,3.2-8.5,4.1-11.1c0.9-2.6,1.6-4.3,1.8-5.2
				c0.3-0.9,0.4-1.4,0.4-1.7c3-2.3,5.6-5,8-8c2.3-3,4.5-6.2,6.5-9.5c2-3.4,3.8-6.8,5.5-10.3c1.7-3.5,3.4-7,5.1-10.3
				C649.1,389.5,649.3,388,648.9,386.6z M618.5,382.6c-1.2,2.6-2.6,5.4-4,8.2c-1.4,2.8-2.9,5.6-4.3,8.3c-1.4,2.7-2.8,5.1-4,7.1
				c-1.2,2-2.3,3.5-3.2,4.6c-0.9,1-1.5,1.3-1.8,0.8c-0.5-0.7-0.8-1.8-0.8-3.5c0-1.6,0.3-3.5,0.8-5.7c0.5-2.2,1.4-4.5,2.5-7
				c1.1-2.5,2.6-4.9,4.4-7.4c4.1-5.8,7.3-9.5,9.6-11.2c2.3-1.7,3.7-2,4.1-1C620.8,377.7,619.7,380,618.5,382.6z"/>
		</g>
	</g>
</g>
</svg>
