<?xml version="1.0" encoding="utf-8"?>
<!-- Generator: Adobe Illustrator 19.0.0, SVG Export Plug-In . SVG Version: 6.00 Build 0)  -->
<svg version="1.1" id="Layer_1" xmlns="http://www.w3.org/2000/svg" xmlns:xlink="http://www.w3.org/1999/xlink" x="0px" y="0px"
	 viewBox="0 0 2500 792" style="enable-background:new 0 0 2500 792;" xml:space="preserve">
<style type="text/css">
	.st0{fill:url(#XMLID_21_);stroke:#C9A6CE;stroke-miterlimit:10;}
	.st1{fill:url(#XMLID_25_);stroke:#C9A6CE;stroke-miterlimit:10;}
	.st2{fill:url(#XMLID_26_);stroke:#C9A6CE;stroke-miterlimit:10;}
	.st3{fill:url(#XMLID_27_);stroke:#C9A6CE;stroke-miterlimit:10;}
	.st4{fill:url(#XMLID_28_);stroke:#C9A6CE;stroke-miterlimit:10;}
	.st5{fill:url(#XMLID_29_);stroke:#C9A6CE;stroke-miterlimit:10;}
	.st6{fill:url(#XMLID_30_);stroke:#C9A6CE;stroke-miterlimit:10;}
	.st7{fill:url(#XMLID_31_);stroke:#C9A6CE;stroke-miterlimit:10;}
	.st8{fill:url(#XMLID_35_);stroke:#C9A6CE;stroke-miterlimit:10;}
	.st9{fill:url(#XMLID_36_);stroke:#C9A6CE;stroke-miterlimit:10;}
	.st10{fill:url(#XMLID_37_);stroke:#C9A6CE;stroke-miterlimit:10;}
	.st11{fill:url(#XMLID_38_);stroke:#C9A6CE;stroke-miterlimit:10;}
</style>
<g id="XMLID_2_">
	<linearGradient id="XMLID_21_" gradientUnits="userSpaceOnUse" x1="0" y1="339.4925" x2="452.4839" y2="339.4925">
		<stop  offset="0" style="stop-color:#C9A4CD"/>
		<stop  offset="0.3927" style="stop-color:#AF8EC2"/>
		<stop  offset="0.767" style="stop-color:#9C80BA"/>
		<stop  offset="1" style="stop-color:#967BB8"/>
	</linearGradient>
	<path id="XMLID_32_" class="st0" d="M113.2,558.7c0-22.5,3.3-52.3,9.8-89.4c6.5-37,18.6-82.6,36.1-136.5
		c-6.5-5.2-13-12.3-19.4-21.5c-6.4-9.1-12-18.6-16.7-28.5c-1.5-3.7-1.3-9,0.7-15.8c1.9-6.8,6.3-18.6,13.2-35.5
		c6.2,9.4,12.4,17.9,18.5,25.7c6.1,7.7,12,13.3,17.6,16.5l56.2-154.1c-20.2,8.9-40.9,20.4-62.2,34.5c-21.3,14.1-40.9,30.3-58.8,48.5
		c-18,18.3-33.2,38.5-45.7,60.5c-12.5,22.1-20.2,45.7-23.2,71.1c-14.3-21.1-24.4-40.1-30.3-57C3,260.3,0,244.4,0,229.4
		c0-26.3,5.5-49.8,16.5-70.7c11-20.9,25.3-39.3,43-55.2c17.7-15.9,37.7-29.6,60-40.8c22.3-11.3,44.6-20.4,66.9-27.4
		c22.3-7,43.5-12.2,63.7-15.5c20.2-3.3,37.3-4.9,51.3-4.9c8.9,0,18.9,0.8,29.9,2.5c11,1.6,22.1,4.5,33.4,8.4
		c11.3,4,22.2,9.3,32.8,15.8c10.5,6.6,19.9,14.8,28.1,24.6c8.2,9.9,14.7,21.5,19.6,34.8s7.4,29,7.4,46.8c0,23.9-5.3,48.4-16,73.5
		c-10.7,25.1-25.5,47.7-44.4,67.9c-18.9,20.2-41.5,36.6-67.8,49.3C298,351.1,269.3,357,238.1,356c-7.7,24.9-14.9,50-21.4,75.3
		c-6.5,25.3-11.7,50.9-15.4,76.7c-3.7,25.8-5.9,51.7-6.7,77.7c-0.7,26,0.8,52.2,4.7,78.5c-11-4.2-21.6-8.4-31.9-12.7
		c-10.3-4.2-19.4-10.1-27.4-17.6c-8-7.5-14.5-17.1-19.4-28.8C115.7,593.4,113.2,577.9,113.2,558.7z M368.2,154.8
		c0-10.3-2.4-19.9-7.1-28.8c-4.8-8.9-12.3-15.9-22.7-21.1c-6.2,12.7-12.8,26.6-19.6,41.9c-6.8,15.2-13.5,30.8-20.1,46.8
		c-6.5,16-12.9,31.6-18.9,46.8c-6.1,15.2-11.5,29.4-16.3,42.6c14-1.9,27.3-7.1,39.9-15.8c12.6-8.7,23.8-19.1,33.4-31.3
		c9.7-12.2,17.3-25.3,23-39.4C365.4,182.2,368.2,168.4,368.2,154.8z"/>
	<linearGradient id="XMLID_25_" gradientUnits="userSpaceOnUse" x1="361.508" y1="332.0749" x2="647.5233" y2="332.0749">
		<stop  offset="0" style="stop-color:#C9A4CD"/>
		<stop  offset="0.3927" style="stop-color:#AF8EC2"/>
		<stop  offset="0.767" style="stop-color:#9C80BA"/>
		<stop  offset="1" style="stop-color:#967BB8"/>
	</linearGradient>
	<path id="XMLID_4_" class="st1" d="M646.6,393.7c-1.6-7-4.5-12-8.7-14.8c-4.2-2.8-9.1-2.5-14.7,1.1c-5.6,3.5-10.9,11.6-15.6,24.3
		c-0.9,1.9-2.5,5.4-4.7,10.6c-2.2,5.2-4.9,11.1-8,17.9c-3.1,6.8-6.5,14.1-10,21.8s-7.1,15.1-10.7,22.2c-3.6,8-7.1,14.8-10.5,20.4
		c-3.4,5.6-6.3,9.5-8.7,11.6c-2.4,2.1-4,1.8-4.9-1.1c-0.9-2.8-0.7-9.1,0.4-19c0.9-6.6,2.2-15.2,4-26c1.8-10.8,4.9-27,9.4-48.5
		c7.7-38.5,10.3-70.2,7.8-95.3c-2.5-25.1-8.4-42.4-17.6-52.1c-9.2-9.6-20.9-11-35-4.2c-14.1,6.8-28.8,22.4-43.9,46.8
		c1.5-7.5,4.2-17.2,8-29.2c3.9-12,8.3-25.2,13.4-39.8c5-14.5,10.5-29.7,16.5-45.4c5.9-15.7,11.7-31,17.2-45.7
		c5.5-14.8,10.7-28.5,15.6-41.2c4.9-12.7,8.8-23.2,11.8-31.7c2.1-6.1,0.2-11.6-5.6-16.5c-5.8-4.9-12.8-8.7-21-11.3
		c-8.2-2.6-16.4-3.6-24.7-3.2c-8.3,0.5-14,2.8-16.9,7c-6.5,9.8-14.1,25.9-22.7,48.2c-3.2,8.2-6.4,17-9.7,26.2
		c1.6,8.8,2.5,18.3,2.5,28.5c0,23.9-5.3,48.4-16,73.5c-8.3,19.4-19,37.4-32.2,53.9c-7.9,31.3-15.2,62.7-21.9,94
		c-7.3,34.2-13.4,67.2-18.5,98.9c-5,31.7-8.2,59.7-9.4,84.1c1.2,7.5,2.9,13.6,5.1,18.3c2.2,4.7,5.8,9,10.7,13
		c4.9,4,11.3,7.9,19.2,11.6c7.9,3.8,17.9,8.4,30.1,14.1c-0.9-10.8-1.2-23.8-0.9-39c0.3-15.2,1.3-31.2,2.9-47.8
		c1.6-16.6,4-33.3,7.1-50c3.1-16.6,6.9-32.4,11.4-47.1c4.5-14.8,9.7-27.5,15.6-38.3c5.9-10.8,12.6-18.8,20.1-23.9
		c6.5-4.2,11.5-6.9,14.9-8.1c3.4-1.2,5.6-0.6,6.5,1.8c0.9,2.4,0.7,6.7-0.4,13c-1.2,6.3-3,14.9-5.3,25.7c-2.7,10.8-5.6,22.9-8.9,36.2
		c-3.3,13.4-6.2,27.1-8.9,41.2c-2.7,14.1-4.8,28-6.5,41.9c-1.6,13.8-2.2,26.6-1.6,38.3c0.3,6.1,1.1,12.1,2.5,17.9
		c1.3,5.9,3.3,11.3,6,16.2c2.7,4.9,6.2,9.4,10.5,13.4c4.3,4,9.7,6.9,16.3,8.8c15.7,4.2,29.8,1.9,42.1-7
		c12.3-8.9,23.9-22.5,34.5-40.8c10.7-18.3,20.9-40.6,30.5-66.8c9.7-26.3,19.7-54.6,30.1-85.1C647.7,408.5,648.2,400.8,646.6,393.7z"
		/>
	<linearGradient id="XMLID_26_" gradientUnits="userSpaceOnUse" x1="622.579" y1="443.0636" x2="869.9715" y2="443.0636">
		<stop  offset="0" style="stop-color:#C9A4CD"/>
		<stop  offset="0.3927" style="stop-color:#AF8EC2"/>
		<stop  offset="0.767" style="stop-color:#9C80BA"/>
		<stop  offset="1" style="stop-color:#967BB8"/>
	</linearGradient>
	<path id="XMLID_6_" class="st2" d="M869.4,393.8c-1.5-8.2-4.2-13.8-8.2-16.9c-4-3-8.6-3-13.8,0c-5.2,3.1-9.6,10-13.2,20.8
		c-1.5,2.8-3.3,7.2-5.3,13c-2.1,5.9-4.3,12.1-6.7,18.6c-2.4,6.6-5,13.4-7.8,20.4c-2.8,7-5.6,13.4-8.2,19c-1.2,2.4-2.9,4.7-5.1,7
		c-2.2,2.4-4.4,1.4-6.5-2.8c3.3-7,6.8-17.5,10.7-31.3c3.9-13.8,6.6-28,8.2-42.6c1.6-14.5,1.6-28-0.2-40.5
		c-1.8-12.4-6.7-21-14.7-25.7c-1.5-23-7.4-40.1-17.6-51.4c-10.3-11.3-22.5-16.9-36.8-16.9c-6.2,0-12.9,1.4-19.8,4.2
		c-7,2.8-14.3,7.9-21.8,15.1c-7.6,7.3-15.5,17.4-23.6,30.3c-8.2,12.9-16.6,29.2-25.2,48.9c-1.9,4.8-3.8,9.8-5.6,15
		c3.1,2.9,5.3,7.3,6.7,13.1c1.6,7,1.1,14.8-1.6,23.2c-10.4,30.4-20.4,58.7-30,84.9c-0.6,9.8-0.7,19.3-0.3,28.4
		c1.2,18.8,5.1,35.8,11.8,51c6.7,15.2,17.2,27.1,31.4,35.5h-0.4c8.9,6.1,18.3,8.2,28.1,6.3c9.8-1.9,19.3-6.3,28.5-13.4
		c9.2-7,17.8-15.8,25.9-26.4c8-10.6,14.9-21.7,20.5-33.4c11.3,8,22.7,9.3,34.1,3.9c11.4-5.4,21-16.3,28.8-32.7
		c2.7-6.1,5.2-12.2,7.6-18.3c2.4-6.1,4.8-12.8,7.4-20.1c2.5-7.3,5.4-15.5,8.5-24.6c3.1-9.1,6.8-19.8,10.9-32
		C869.6,412,870.8,402,869.4,393.8z M732,385c-4.2,9.9-6.9,20.6-8.2,32.4c-1.3,11.7-1.2,23.9,0.4,36.6c1.6,12.7,4.5,24.9,8.7,36.6
		c-2.1,4.7-4.3,9.9-6.7,15.5c-2.4,5.6-4.8,11-7.4,16.2c-2.5,5.2-5.1,9.5-7.6,13c-2.5,3.5-4.7,5.3-6.5,5.3c-5.3,0-9-4.6-10.9-13.7
		c-1.9-9.1-2.5-20.6-1.6-34.5c0.9-13.8,2.7-28.7,5.6-44.7c2.8-15.9,6.3-31,10.5-45c4.2-14.1,8.7-26,13.6-35.9
		c4.9-9.9,9.7-15.2,14.5-16.2c0.9,2.4,2.4,4.2,4.5,5.6c2.1,1.4,4.3,3.1,6.7,4.9h2.2C742.1,367.2,736.2,375.2,732,385z"/>
	<linearGradient id="XMLID_27_" gradientUnits="userSpaceOnUse" x1="1000.6169" y1="439.1163" x2="1247.9735" y2="439.1163">
		<stop  offset="0" style="stop-color:#C9A4CD"/>
		<stop  offset="0.3927" style="stop-color:#AF8EC2"/>
		<stop  offset="0.767" style="stop-color:#9C80BA"/>
		<stop  offset="1" style="stop-color:#967BB8"/>
	</linearGradient>
	<path id="XMLID_10_" class="st3" d="M1247.4,389.9c-1.5-8.2-4.2-13.8-8.2-16.9c-4-3-8.6-3-13.8,0c-5.2,3.1-9.6,10-13.2,20.8
		c-1.5,2.8-3.3,7.2-5.3,13c-2.1,5.9-4.3,12.1-6.7,18.6c-2.4,6.6-5,13.4-7.8,20.4c-2.8,7-5.6,13.4-8.2,19c-1.2,2.4-2.9,4.7-5.1,7
		c-2.2,2.4-4.4,1.4-6.5-2.8c3.3-7,6.8-17.5,10.7-31.3c3.9-13.8,6.6-28,8.2-42.6c1.6-14.5,1.6-28-0.2-40.5
		c-1.8-12.4-6.7-21-14.7-25.7c-1.5-23-7.4-40.1-17.6-51.4c-10.3-11.3-22.5-16.9-36.8-16.9c-6.2,0-12.9,1.4-19.8,4.2
		c-7,2.8-14.3,7.9-21.8,15.1c-7.6,7.3-15.5,17.4-23.6,30.3c-8.2,12.9-16.6,29.2-25.2,48.9c-3.2,8.1-6.3,16.9-9.3,26.3
		c2.8,0.5,5.4,2.1,7.8,4.8c3.7,4.2,6.2,10.3,7.6,18.3c1.3,8,0.4,15.7-2.9,23.2c-6.8,16.4-14,34.6-21.6,54.5
		c-3.9,10.3-8.1,20.3-12.5,30c0,2.6,0.1,5.1,0.2,7.6c1.2,18.8,5.1,35.8,11.8,51c6.7,15.2,17.2,27.1,31.4,35.5h-0.4
		c8.9,6.1,18.3,8.2,28.1,6.3c9.8-1.9,19.3-6.3,28.5-13.4c9.2-7,17.8-15.8,25.9-26.4c8-10.6,14.9-21.7,20.5-33.4
		c11.3,8,22.7,9.3,34.1,3.9c11.4-5.4,21-16.3,28.8-32.7c2.7-6.1,5.2-12.2,7.6-18.3c2.4-6.1,4.8-12.8,7.4-20.1
		c2.5-7.3,5.3-15.5,8.5-24.6c3.1-9.1,6.8-19.8,10.9-32C1247.6,408.1,1248.8,398.1,1247.4,389.9z M1110.1,381.1
		c-4.2,9.9-6.9,20.6-8.2,32.4c-1.3,11.7-1.2,23.9,0.4,36.6c1.6,12.7,4.5,24.9,8.7,36.6c-2.1,4.7-4.3,9.8-6.7,15.5
		c-2.4,5.6-4.8,11-7.4,16.2c-2.5,5.2-5.1,9.5-7.6,13c-2.5,3.5-4.7,5.3-6.5,5.3c-5.3,0-9-4.6-10.9-13.7c-1.9-9.1-2.5-20.6-1.6-34.5
		c0.9-13.8,2.7-28.7,5.6-44.7c2.8-15.9,6.3-31,10.5-45c4.2-14.1,8.7-26,13.6-35.9c4.9-9.9,9.7-15.2,14.5-16.2
		c0.9,2.4,2.4,4.2,4.5,5.6c2.1,1.4,4.3,3.1,6.7,4.9h2.2C1120.2,363.3,1114.2,371.2,1110.1,381.1z"/>
	<linearGradient id="XMLID_28_" gradientUnits="userSpaceOnUse" x1="838.7307" y1="382.2226" x2="1028.7549" y2="382.2226">
		<stop  offset="0" style="stop-color:#C9A4CD"/>
		<stop  offset="0.3927" style="stop-color:#AF8EC2"/>
		<stop  offset="0.767" style="stop-color:#9C80BA"/>
		<stop  offset="1" style="stop-color:#967BB8"/>
	</linearGradient>
	<path id="XMLID_5_" class="st4" d="M1028.2,411.5c-1.3-8-3.9-14.1-7.6-18.3c-3.7-4.2-8-5.7-12.9-4.6c-4.9,1.2-9.3,7.2-13.2,17.9
		c-6.2,16-12.4,30.3-18.5,42.9c-6.1,12.7-11.6,23.6-16.5,32.7c-4.9,9.1-9.1,16.3-12.5,21.5c-3.4,5.2-5.7,8.2-6.9,9.1
		c-5.9,6.6-10.6,10-14,10.2c-3.4,0.2-5.9-1.6-7.4-5.6c-1.5-4-2.2-9.4-2.2-16.2c0-6.8,0.3-14.2,0.9-22.2c0.9-13.1,3.1-26.8,6.7-41.2
		c3.6-14.3,7.4-28.1,11.4-41.5c4-13.4,7.9-25.6,11.8-36.6c3.9-11,6.7-19.6,8.5-25.7c3,0,6.5,0.2,10.5,0.7c4,0.5,7.1,0.2,9.1-0.7
		c3-0.5,6.2-2.7,9.6-6.7c3.4-4,6.5-8.7,9.1-14.1c2.7-5.4,4.8-10.9,6.5-16.5c1.6-5.6,2.3-10.6,2-14.8c-0.3-3.7-1.9-6.3-4.7-7.7
		c-2.8-1.4-9.7-2.1-20.7-2.1c5.3-17.3,10-31.9,13.8-43.6c3.9-11.7,7-21.5,9.4-29.2c2.4-7.7,4.2-13.6,5.3-17.6c1.2-4,2.1-6.9,2.7-8.8
		c-0.3-5.6-2.6-10.3-6.9-14.1c-4.3-3.7-9.7-6.7-16-8.8c-6.4-2.1-13.4-3.4-21-3.9c-7.6-0.5-14.8-0.1-21.6,1.1
		c-6.8,1.2-12.8,2.9-17.8,5.3c-5.1,2.4-8.3,5.2-9.8,8.4c3.9,2.4,6.9,5.6,9.1,9.9c2.2,4.2,2,12.2-0.7,23.9
		c-3.3,12.7-6.9,25.3-10.9,38s-8.1,25.8-12.3,39.4h-14.3c-2.4,0-5.4,3.3-9.1,9.9c-3.7,6.6-6.8,13.7-9.1,21.5
		c-2.4,7.7-3.6,14.8-3.8,21.1c-0.1,6.3,2.2,9.5,6.9,9.5h11.1c-3.3,10.3-7.1,22.4-11.4,36.2c-0.8,2.6-1.6,5.4-2.4,8.1
		c3.7,3.2,6.2,8.6,7.6,16.3c1.5,8.2,0.3,18.2-3.6,29.9c-4.2,12.2-7.8,22.9-10.9,32c-3.1,9.1-5.9,17.4-8.5,24.6
		c-2.5,7.3-5,14-7.4,20.1c-2,5.1-4.1,10.2-6.3,15.3c-2.2,32.7,1,57.6,9.6,74.7c9.1,18.1,23.7,27.1,43.9,27.1c2.4,0,4.6-0.2,6.7-0.7
		c2.1-0.5,4.2-0.9,6.2-1.4c15.4-3.3,29-11.5,40.8-24.6c11.7-13.1,22.3-28.5,31.7-46.1c9.4-17.6,17.8-36.3,25.4-56.3
		c7.6-19.9,14.8-38.1,21.6-54.5C1028.5,427.2,1029.5,419.5,1028.2,411.5z"/>
	<linearGradient id="XMLID_29_" gradientUnits="userSpaceOnUse" x1="1220.4512" y1="421.9933" x2="1442.6272" y2="421.9933">
		<stop  offset="0" style="stop-color:#C9A4CD"/>
		<stop  offset="0.3927" style="stop-color:#AF8EC2"/>
		<stop  offset="0.767" style="stop-color:#9C80BA"/>
		<stop  offset="1" style="stop-color:#967BB8"/>
	</linearGradient>
	<path id="XMLID_7_" class="st5" d="M1441,425.3c-2.4-6.3-5.8-10.8-10.3-13.4c-4.5-2.6-9.3-2.3-14.5,0.7
		c-5.2,3.1-9.6,10.4-13.2,22.2c-0.6,1.4-1.9,4.6-3.8,9.5c-1.9,4.9-4.2,10.7-6.9,17.2c-2.7,6.6-5.6,13.5-8.7,20.8
		c-3.1,7.3-6.2,13.7-9.1,19.3c-1.5,2.4-2.8,4.7-3.8,7c-1,2.4-2.2,4.7-3.3,7c-1.2,1.4-2.2,2.4-3.1,2.8c-0.9,0.5-2.2-0.5-4-2.8
		c-3.6-3.7-4.9-10.4-4-20.1c0.9-9.6,2.8-19.8,5.8-30.6c2.7-11.3,5.9-21.9,9.8-32c3.9-10.1,7.9-20.2,12-30.3
		c4.2-10.1,8.2-20.4,12.3-31c4-10.6,7.6-21.5,10.9-32.7c0.9-6.1-1.9-12.5-8.2-19.3c-6.4-6.8-13.7-12.7-21.8-17.6
		c-8.2-4.9-16.1-8.1-23.9-9.5c-7.7-1.4-12.6,0-14.7,4.2l-10.3,19c1.8-7,3.7-15.4,5.8-25c2.1-9.6,3.2-19,3.3-28.1
		c0.1-9.1-1.2-17.5-4-25c-2.8-7.5-8.1-12.7-15.8-15.5c-5.6-2.3-11.6-0.9-17.8,4.2c-6.2,5.2-12.3,12.6-18.1,22.2
		c-5.8,9.6-11.1,20.8-16,33.4c-4.9,12.7-8.8,25.7-11.8,39c-3,13.4-4.8,26.3-5.3,38.7c-0.4,8.3-0.1,15.6,1,22.1
		c1.5,2.9,2.6,6.5,3.4,10.8c1.5,8.2,0.3,18.2-3.6,29.9c-4.2,12.2-7.8,22.9-10.9,32c-3.1,9.1-5.9,17.4-8.5,24.6
		c-2.5,7.3-5,14-7.4,20.1c-0.6,1.7-1.3,3.3-2,5c1.7,4.9,4.2,8.3,7.4,10.3c4.2,2.6,8.8,2.4,14-0.7c5.2-3,9.6-9.7,13.2-20.1
		c6.2-14.5,10.9-25.6,14-33.1c3.1-7.5,5.6-13.4,7.6-17.6c1.9-4.2,3.6-8.2,5.1-12c1.5-3.7,3.7-9.4,6.7-16.9c4.2,0.5,7.6-0.1,10.5-1.8
		c2.8-1.6,6.3-3.2,10.5-4.6c-6.5,20.6-12.6,41.4-18.1,62.3c-5.5,20.9-8,43.7-7.4,68.6c0.6,20.6,3.2,38.7,7.8,54.2
		c4.6,15.5,13.4,24.9,26.5,28.1c10.4,2.8,20.1,1.6,29.2-3.5c9.1-5.2,17.6-12.9,25.6-23.2c13.4-17.3,25.6-39.8,36.6-67.2
		c11-27.4,21.2-54.8,30.8-82C1443.2,438.3,1443.3,431.6,1441,425.3z"/>
	<linearGradient id="XMLID_30_" gradientUnits="userSpaceOnUse" x1="1417.7886" y1="447.3166" x2="1699.0088" y2="447.3166">
		<stop  offset="0" style="stop-color:#C9A4CD"/>
		<stop  offset="0.3927" style="stop-color:#AF8EC2"/>
		<stop  offset="0.767" style="stop-color:#9C80BA"/>
		<stop  offset="1" style="stop-color:#967BB8"/>
	</linearGradient>
	<path id="XMLID_12_" class="st6" d="M1697.9,396.9c-1.8-7.7-4.8-13-9.1-15.8c-4.3-2.8-9.3-2.1-14.9,2.1c-5.6,4.2-11,13.8-16,28.8
		c-0.9,2.4-2.3,6.2-4.2,11.6c-1.9,5.4-4.2,11.5-6.9,18.3c-2.7,6.8-5.5,14-8.5,21.5c-3,7.5-5.9,14.3-8.9,20.4c-3,6.6-6.2,12.9-9.6,19
		c-3.4,6.1-6.4,9.8-8.9,11.3c-2.5,1.4-4.5-0.6-5.8-6c-1.3-5.4-1.6-16.3-0.7-32.7c0.9-17.3,3.3-36.6,7.1-57.7
		c3.9-21.1,8.8-42.9,14.7-65.4c-1.5-6.1-4.8-12.7-9.8-19.7c-5.1-7-10.6-11-16.5-12c-0.6-8.4-2.7-15.6-6.2-21.5
		c-3.6-5.9-8-10.7-13.2-14.4c-5.2-3.7-10.7-6.4-16.5-8.1c-5.8-1.6-11.1-2.5-15.8-2.5c-6.5,0-13.6,1.5-21.2,4.6
		c-7.6,3.1-15.5,8.4-23.9,16.2c-8.3,7.7-16.8,18.2-25.4,31.3c-8.6,13.1-17.1,29.6-25.4,49.3c-5.2,12.7-9.8,25.1-13.8,37.1
		c4,2.6,7.1,6.9,9.3,12.8c2.4,6.3,2.2,13-0.4,20.1c-9.2,26.2-19,52.6-29.6,79c0,4,0,7.8,0.2,11.5c1.5,21.1,6.1,38.9,13.8,53.5
		c7.7,14.5,18.6,24.4,32.5,29.6c7.4,2.3,14.9,2,22.5-1.1c7.6-3,14.9-7.6,21.8-13.7c7-6.1,13.7-13.4,20.1-21.8
		c6.4-8.4,12.1-16.9,17.2-25.3c0,15,3.6,27,10.9,35.9c7.3,8.9,15.8,13.4,25.6,13.4c8,0,15.4-2,22.3-6c6.8-4,13.2-9.4,19.2-16.2
		c5.9-6.8,11.4-14.8,16.5-23.9c5.1-9.1,10-18.9,14.7-29.2c7.7-17.3,14.9-35.2,21.4-53.5c6.5-18.3,13.2-36.6,20.1-54.9
		C1699.3,413.3,1699.7,404.7,1697.9,396.9z M1574,352.3c-3.6,9.8-8,21.7-13.2,35.5c-5.2,13.8-10.7,28.1-16.5,42.9
		c-5.8,14.8-11.8,29.1-18.1,42.9c-6.2,13.8-12,25.8-17.2,35.9c-5.2,10.1-9.7,17.7-13.6,22.9c-3.9,5.2-6.4,6.1-7.6,2.8
		c-1.8-3.7-2.8-10.2-3.1-19.3c-0.3-9.1,0.6-19.7,2.7-31.7c2.1-12,5.2-24.9,9.4-38.7c4.2-13.8,9.8-27.3,16.9-40.5
		c10.4-21.6,19.7-37.9,27.9-48.9c8.2-11,14.8-18.4,19.8-22.2c3.6-2.8,7.2-2.7,10.9,0.4C1576.2,337.4,1576.7,343.4,1574,352.3z"/>
	<linearGradient id="XMLID_31_" gradientUnits="userSpaceOnUse" x1="1667.4286" y1="382.2226" x2="1857.4515" y2="382.2226">
		<stop  offset="0" style="stop-color:#C9A4CD"/>
		<stop  offset="0.3927" style="stop-color:#AF8EC2"/>
		<stop  offset="0.767" style="stop-color:#9C80BA"/>
		<stop  offset="1" style="stop-color:#967BB8"/>
	</linearGradient>
	<path id="XMLID_11_" class="st7" d="M1856.9,411.5c-1.3-8-3.9-14.1-7.6-18.3c-3.7-4.2-8-5.7-12.9-4.6c-4.9,1.2-9.3,7.2-13.2,17.9
		c-6.2,16-12.4,30.3-18.5,42.9c-6.1,12.7-11.6,23.6-16.5,32.7c-4.9,9.1-9.1,16.3-12.5,21.5c-3.4,5.2-5.7,8.2-6.9,9.1
		c-5.9,6.6-10.6,10-14,10.2c-3.4,0.2-5.9-1.6-7.4-5.6c-1.5-4-2.2-9.4-2.2-16.2c0-6.8,0.3-14.2,0.9-22.2c0.9-13.1,3.1-26.8,6.7-41.2
		c3.6-14.3,7.4-28.1,11.4-41.5c4-13.4,7.9-25.6,11.8-36.6c3.9-11,6.7-19.6,8.5-25.7c3,0,6.5,0.2,10.5,0.7c4,0.5,7.1,0.2,9.1-0.7
		c3-0.5,6.2-2.7,9.6-6.7c3.4-4,6.5-8.7,9.1-14.1c2.7-5.4,4.8-10.9,6.5-16.5c1.6-5.6,2.3-10.6,2-14.8c-0.3-3.7-1.9-6.3-4.7-7.7
		c-2.8-1.4-9.7-2.1-20.7-2.1c5.3-17.3,10-31.9,13.8-43.6c3.9-11.7,7-21.5,9.4-29.2c2.4-7.7,4.2-13.6,5.3-17.6c1.2-4,2.1-6.9,2.7-8.8
		c-0.3-5.6-2.6-10.3-6.9-14.1c-4.3-3.7-9.7-6.7-16-8.8c-6.4-2.1-13.4-3.4-21-3.9c-7.6-0.5-14.8-0.1-21.6,1.1
		c-6.8,1.2-12.8,2.9-17.8,5.3c-5.1,2.4-8.3,5.2-9.8,8.4c3.9,2.4,6.9,5.6,9.1,9.9c2.2,4.2,2,12.2-0.7,23.9
		c-3.3,12.7-6.9,25.3-10.9,38s-8.1,25.8-12.3,39.4h-14.3c-2.4,0-5.4,3.3-9.1,9.9c-3.7,6.6-6.8,13.7-9.1,21.5
		c-2.4,7.7-3.6,14.8-3.8,21.1c-0.1,6.3,2.2,9.5,6.9,9.5h11.1c-3.3,10.3-7.1,22.4-11.4,36.2c-0.9,2.9-1.8,5.9-2.7,9c0,0,0,0,0.1,0
		c4.3,2.8,7.4,8.1,9.1,15.8c1.8,7.7,1.3,16.3-1.3,25.7c-6.8,18.3-13.5,36.6-20.1,54.9c-5.2,14.4-10.7,28.6-16.6,42.4
		c-2,32,1.2,56.4,9.7,73.2c9.1,18.1,23.7,27.1,43.9,27.1c2.4,0,4.6-0.2,6.7-0.7c2.1-0.5,4.2-0.9,6.2-1.4c15.4-3.3,29-11.5,40.8-24.6
		c11.7-13.1,22.3-28.5,31.7-46.1c9.4-17.6,17.8-36.3,25.4-56.3c7.6-19.9,14.8-38.1,21.6-54.5
		C1857.2,427.2,1858.2,419.5,1856.9,411.5z"/>
	<g id="XMLID_3_">
		<linearGradient id="XMLID_35_" gradientUnits="userSpaceOnUse" x1="1918.082" y1="204.9637" x2="1990.9596" y2="204.9637">
			<stop  offset="0" style="stop-color:#C9A4CD"/>
			<stop  offset="0.3927" style="stop-color:#AF8EC2"/>
			<stop  offset="0.767" style="stop-color:#9C80BA"/>
			<stop  offset="1" style="stop-color:#967BB8"/>
		</linearGradient>
		<path id="XMLID_15_" class="st8" d="M1933,246.4c5.6,6.6,11.9,11.1,18.7,13.7c6.8,2.6,11.9,0.8,15.2-5.3l21.8-57
			c0.3-0.5,0.7-1.6,1.3-3.5c0.6-1.9,0.9-4.1,0.9-6.7c0-2.6-0.6-5.4-1.8-8.4c-1.2-3-3.3-6-6.2-8.8h0.9c-5.9-6.6-11.7-11.8-17.2-15.8
			c-5.5-4-11.7-6-18.5-6c-10.1,0-16.6,3.3-19.6,9.9c-3.3,6.1-5.7,13-7.4,20.8c-1.6,7.7-2.6,15.4-2.9,22.9c-0.6,8.9,0.1,17,2,24.3
			C1922.2,233.7,1926.5,240.3,1933,246.4z"/>
		<linearGradient id="XMLID_36_" gradientUnits="userSpaceOnUse" x1="1833.8489" y1="438.4774" x2="2006.7957" y2="438.4774">
			<stop  offset="0" style="stop-color:#C9A4CD"/>
			<stop  offset="0.3927" style="stop-color:#AF8EC2"/>
			<stop  offset="0.767" style="stop-color:#9C80BA"/>
			<stop  offset="1" style="stop-color:#967BB8"/>
		</linearGradient>
		<path id="XMLID_20_" class="st9" d="M2005.9,392.9c-1.6-8-4.5-13.6-8.7-16.9c-4.2-3.3-9.1-3.3-14.7,0
			c-5.6,3.3-10.9,11.7-15.6,25.3c-5.6,16-12.3,32.8-20.1,50.7c-7.7,17.8-15.3,32.8-22.7,45c-3.9,6.6-7.3,11.5-10.3,14.8
			c-3,3.3-5.3,4.6-7.1,3.9c-1.8-0.7-2.8-3.7-3.1-9.1c-0.3-5.4,0.4-13.5,2.2-24.3c2.1-14.1,5.6-30.5,10.7-49.3
			c5.1-18.8,10.5-37.3,16.5-55.6c5.9-18.3,11.9-35.3,17.8-51c5.9-15.7,11.1-27.8,15.6-36.2c-1.2-2.3-4-5.2-8.5-8.4
			c-4.5-3.3-10-6.3-16.5-9.1c-6.5-2.8-13.7-5-21.6-6.7c-7.9-1.6-15.8-1.8-23.9-0.4c-5.3,16.4-11.8,36.4-19.4,59.8
			c-6.5,20.1-12.6,41.1-18.3,62.8c3.7,4.2,6.2,10.3,7.5,18.2c1.3,8,0.4,15.7-2.9,23.2c-6.8,16.4-14,34.6-21.6,54.5
			c-1.7,4.5-3.5,8.9-5.2,13.2c-1.9,16.8-2.6,32.4-2,46.8c1.5,21.1,6.6,37.8,15.4,50c8.8,12.2,20.1,18.3,34.1,18.3
			c13.4,0,25.3-4.8,35.9-14.4c10.5-9.6,20.4-23,29.6-40.1c9.2-17.1,18.2-37.6,27-61.6c8.8-23.9,18.1-50.2,27.9-78.8
			C2006.9,409.1,2007.6,400.9,2005.9,392.9z"/>
		<linearGradient id="XMLID_37_" gradientUnits="userSpaceOnUse" x1="1965.0074" y1="432.7709" x2="2254.2847" y2="432.7709">
			<stop  offset="0" style="stop-color:#C9A4CD"/>
			<stop  offset="0.3927" style="stop-color:#AF8EC2"/>
			<stop  offset="0.767" style="stop-color:#9C80BA"/>
			<stop  offset="1" style="stop-color:#967BB8"/>
		</linearGradient>
		<path id="XMLID_19_" class="st10" d="M2253.9,396.5c-1-8.4-3.4-14.5-7.1-18.3c-3.7-3.7-8.4-4.2-14-1.4
			c-5.6,2.8-11.1,10.6-16.5,23.2c-4.8,12.7-10,25.6-15.6,38.7c-5.6,13.1-11.4,25.8-17.4,38c-4.5,8.4-8.4,15.1-11.8,20.1
			c-3.4,4.9-6,7-7.8,6.3c-1.8-0.7-2.6-5-2.5-13c0.1-8,1.7-20.6,4.7-38c2.4-12.2,5.2-24.5,8.5-36.9c3.3-12.4,6.2-25,8.7-37.6
			c2.5-12.7,4.2-25.6,5.1-38.7c0.9-13.1,0-26.5-2.7-40.1c-3.3-14.5-8.7-25-16.3-31.3c-7.6-6.3-16-9.9-25.2-10.6
			c-9.2-0.7-18.4,1.2-27.6,5.6c-9.2,4.5-17.1,10.2-23.6,17.2c0.3-2.8,0.7-4.8,1.1-6c0.4-1.2,0.7-2.2,0.7-3.2
			c0.3-3.3-1.1-6.1-4.2-8.4c-3.1-2.3-7.1-4-11.8-4.9c-4.8-0.9-10-1.4-15.8-1.4s-11.3,0.4-16.5,1.1c-5.2,0.7-9.7,1.8-13.4,3.2
			c-3.7,1.4-5.9,3.1-6.5,4.9h0.9c-0.9,1.4-3.1,8.1-6.5,20.1c-3.4,12-7.4,26.9-11.8,44.7c-3.2,12.7-6.5,26.4-9.9,41
			c2.7-0.2,5.2,0.6,7.5,2.4c4.2,3.3,7.1,8.9,8.7,16.9c1.6,8,1,16.2-2,24.6c-9.8,28.6-19.1,54.9-27.9,78.8
			c-6.3,17.1-12.7,32.4-19.2,46.1c-0.1,1.5-0.1,2.9-0.1,4.1c-2.4,14.1-1.1,25.5,3.8,34.1c4.9,8.7,11.2,15.4,18.9,20.1
			c7.7,4.7,15.7,7.8,24.1,9.5c8.3,1.6,14.9,2.5,19.6,2.5c0.9-17.8,2.9-37.3,6-58.4s6.8-42.3,11.1-63.7c4.3-21.3,9.3-41.6,14.9-60.9
			c5.6-19.2,11.5-35.6,17.6-49.3c6.1-13.6,12.3-23.7,18.5-30.3c6.2-6.6,12.3-7.5,18.3-2.8c2.7,2.4,3.8,6.5,3.3,12.3
			c-0.4,5.9-1.7,13.1-3.8,21.8c-2.1,8.7-4.8,18.4-8,29.2c-3.3,10.8-6.4,22.1-9.4,33.8c-5.1,22.5-9,44.7-11.8,66.5
			c-2.8,21.8-2.3,40.9,1.6,57.3c3.6,16,9.4,27.3,17.4,34.1c8,6.8,16.7,10,26.1,9.5c9.4-0.5,18.7-3.8,28.1-9.8
			c9.4-6.1,17.3-14.3,23.9-24.6c6.2-10.3,11.9-20.6,16.9-31c5.1-10.3,10-21.5,14.9-33.4c4.9-12,9.9-25,14.9-39.1
			c5.1-14.1,10.7-30,16.9-47.8C2253.7,413.9,2255,405,2253.9,396.5z"/>
		<linearGradient id="XMLID_38_" gradientUnits="userSpaceOnUse" x1="2241.5254" y1="496.4884" x2="2500" y2="496.4884">
			<stop  offset="0" style="stop-color:#C9A4CD"/>
			<stop  offset="0.3927" style="stop-color:#AF8EC2"/>
			<stop  offset="0.767" style="stop-color:#9C80BA"/>
			<stop  offset="1" style="stop-color:#967BB8"/>
		</linearGradient>
		<path id="XMLID_24_" class="st11" d="M2499.2,325.9c-1.6-7.3-4.6-12.3-8.9-15.1c-4.3-2.8-9.1-2.9-14.3-0.4
			c-5.2,2.6-9.3,8.8-12.3,18.6c-0.6,2.4-2.8,8.3-6.7,17.9c-3.9,9.6-8.2,20.4-13.2,32.4c-4.9,12-9.7,23.5-14.5,34.5
			c-4.8,11-8.3,19.1-10.7,24.3c1.5-10.8,3.9-22.7,7.4-35.9c3.4-13.1,6.9-26.5,10.5-40.1c3.6-13.6,6.9-26.8,10-39.8
			c3.1-12.9,5.1-24.5,6-34.8c-2.1-7.5-6.2-15.4-12.5-23.6c-6.2-8.2-12.8-13-19.6-14.4c0-10.3-1.6-18.6-4.9-25
			c-3.3-6.3-7.4-11.3-12.3-14.8c-4.9-3.5-10.3-5.9-16.3-7c-5.9-1.2-11.6-1.8-16.9-1.8c-6.2,0-13.2,1.5-20.7,4.6
			c-7.6,3.1-15.5,8.4-23.9,16.2c-8.3,7.7-16.9,18.2-25.9,31.3c-8.9,13.1-17.5,29.6-25.9,49.3c-4.8,11.7-9.5,25.1-14.3,40.1
			c-3.6,11.4-6.8,22.9-9.5,34.7c1.1,0.5,2.1,1.3,3,2.2c3.7,3.8,6.1,9.9,7.1,18.3c1,8.4-0.2,17.4-3.8,26.7
			c-5.4,15.5-10.4,29.6-14.9,42.2c0.5,4.9,1.1,9.7,2,14.5c2.7,14.1,7.4,26.7,14.3,38c6.8,11.3,16.6,20.2,29.4,26.7
			c10.1,2.3,19.8,1.2,29.2-3.5c9.4-4.7,18.3-12,27-21.8c-12.2,26.3-23.3,51-33.4,74.2c-10.1,23.2-18.5,45-25.2,65.4
			c-6.7,20.4-11.4,39.2-14,56.3c-2.7,17.1-2.7,32.5,0,46.1c2.7,9.9,7.4,17.2,14,22.2c6.7,4.9,13.8,7.4,21.4,7.4s14.9-2.2,21.8-6.7
			c7-4.5,12.3-11.4,15.8-20.8c12.5-45,22.3-80.7,29.4-106.9c7.1-26.3,12.6-46.4,16.3-60.5c3.7-14.1,6.1-23.5,7.1-28.1
			c1-4.7,1.6-7.7,1.6-9.1c11.6-12.7,22-27.2,31.2-43.6c9.2-16.4,17.7-33.8,25.4-52.1c7.7-18.3,14.9-37,21.4-56.3
			c6.5-19.2,13.2-38,20.1-56.3C2499.9,341.7,2500.9,333.1,2499.2,325.9z M2379.8,304.1c-4.9,14.3-10.2,29.2-15.8,44.7
			c-5.6,15.5-11.3,30.6-16.9,45.4c-5.6,14.8-10.9,27.7-15.8,38.7c-4.9,11-9.1,19.3-12.7,25c-3.6,5.6-5.9,7-7.1,4.2
			c-2.1-3.7-3.1-10.1-3.1-19c0-8.9,1-19.3,3.1-31.3c2.1-12,5.3-24.7,9.8-38.3c4.5-13.6,10.3-27,17.4-40.1
			c16-31.4,28.6-51.7,37.7-60.9c9.1-9.1,14.5-10.9,16.3-5.3C2388.9,277.4,2384.7,289.8,2379.8,304.1z"/>
	</g>
</g>
</svg>
