<?xml version="1.0" encoding="utf-8"?>
<!-- Generator: Adobe Illustrator 19.0.0, SVG Export Plug-In . SVG Version: 6.00 Build 0)  -->
<svg version="1.1" id="Layer_1" xmlns="http://www.w3.org/2000/svg" xmlns:xlink="http://www.w3.org/1999/xlink" x="0px" y="0px"
	 viewBox="0 0 2500 792" style="enable-background:new 0 0 2500 792;" xml:space="preserve">
<style type="text/css">
	.st0{fill:url(#XMLID_21_);stroke:#C9A6CE;stroke-miterlimit:10;}
	.st1{fill:url(#XMLID_25_);stroke:#C9A6CE;stroke-miterlimit:10;}
	.st2{fill:url(#XMLID_26_);stroke:#C9A6CE;stroke-miterlimit:10;}
	.st3{fill:url(#XMLID_27_);stroke:#C9A6CE;stroke-miterlimit:10;}
	.st4{fill:url(#XMLID_28_);stroke:#C9A6CE;stroke-miterlimit:10;}
	.st5{fill:url(#XMLID_29_);stroke:#C9A6CE;stroke-miterlimit:10;}
	.st6{fill:url(#XMLID_30_);stroke:#C9A6CE;stroke-miterlimit:10;}
	.st7{fill:url(#XMLID_31_);stroke:#C9A6CE;stroke-miterlimit:10;}
	.st8{fill:url(#XMLID_35_);stroke:#C9A6CE;stroke-miterlimit:10;}
	.st9{fill:url(#XMLID_36_);stroke:#C9A6CE;stroke-miterlimit:10;}
	.st10{fill:url(#XMLID_37_);stroke:#C9A6CE;stroke-miterlimit:10;}
	.st11{fill:url(#XMLID_38_);stroke:#C9A6CE;stroke-miterlimit:10;}
</style>
<g id="XMLID_2_">
	<linearGradient id="XMLID_21_" gradientUnits="userSpaceOnUse" x1="209.8058" y1="309.8137" x2="613.7755" y2="309.8137">
		<stop  offset="0" style="stop-color:#B978B3"/>
		<stop  offset="0.209" style="stop-color:#AD63A8"/>
		<stop  offset="0.5525" style="stop-color:#9E459A"/>
		<stop  offset="0.8283" style="stop-color:#952F92"/>
		<stop  offset="1" style="stop-color:#92278F"/>
	</linearGradient>
	<path id="XMLID_32_" class="st0" d="M310.9,433.8c0-12.7,2.9-29.6,8.8-50.5c5.8-21,16.6-46.7,32.2-77.2c-5.8-2.9-11.6-7-17.3-12.1
		c-5.7-5.2-10.7-10.5-14.9-16.1c-1.3-2.1-1.1-5.1,0.6-9c1.7-3.8,5.6-10.5,11.7-20.1c5.6,5.3,11.1,10.1,16.5,14.5
		c5.4,4.4,10.7,7.5,15.7,9.4l50.1-87.2c-18,5-36.6,11.5-55.5,19.5c-19,8-36.5,17.1-52.5,27.5c-16.1,10.3-29.7,21.8-40.8,34.2
		c-11.1,12.5-18,25.9-20.7,40.2c-12.7-11.9-21.8-22.7-27.1-32.2c-5.3-9.6-8-18.6-8-27.1c0-14.9,4.9-28.2,14.7-40
		c9.8-11.8,22.6-22.2,38.4-31.2c15.8-9,33.6-16.7,53.5-23.1c19.9-6.4,39.8-11.5,59.7-15.5c19.9-4,38.9-6.9,56.9-8.8
		c18-1.9,33.3-2.8,45.8-2.8c8,0,16.8,0.5,26.7,1.4c9.8,0.9,19.8,2.5,29.9,4.8c10.1,2.3,19.8,5.2,29.3,9c9.4,3.7,17.8,8.4,25.1,13.9
		c7.3,5.6,13.1,12.1,17.5,19.7s6.6,16.4,6.6,26.5c0,13.5-4.8,27.4-14.3,41.6c-9.6,14.2-22.8,27-39.6,38.4
		c-16.9,11.4-37,20.7-60.5,27.9c-23.5,7.2-49.2,10.5-77,10c-6.9,14.1-13.3,28.3-19.1,42.6c-5.8,14.3-10.4,28.8-13.7,43.4
		c-3.3,14.6-5.3,29.3-6,44c-0.7,14.7,0.7,29.5,4.2,44.4c-9.8-2.4-19.3-4.8-28.5-7.2c-9.2-2.4-17.3-5.7-24.5-10
		c-7.2-4.2-12.9-9.7-17.3-16.3C313.1,453.4,310.9,444.7,310.9,433.8z M538.6,205.3c0-5.8-2.1-11.3-6.4-16.3c-4.2-5-11-9-20.3-11.9
		c-5.6,7.2-11.4,15.1-17.5,23.7c-6.1,8.6-12.1,17.5-17.9,26.5c-5.8,9-11.5,17.8-16.9,26.5c-5.4,8.6-10.3,16.7-14.5,24.1
		c12.5-1.1,24.3-4,35.6-9c11.3-4.9,21.2-10.8,29.9-17.7c8.6-6.9,15.5-14.3,20.5-22.3C536,220.9,538.6,213,538.6,205.3z"/>
	<linearGradient id="XMLID_25_" gradientUnits="userSpaceOnUse" x1="532.5538" y1="305.6178" x2="787.9033" y2="305.6178">
		<stop  offset="0" style="stop-color:#B978B3"/>
		<stop  offset="0.209" style="stop-color:#AD63A8"/>
		<stop  offset="0.5525" style="stop-color:#9E459A"/>
		<stop  offset="0.8283" style="stop-color:#952F92"/>
		<stop  offset="1" style="stop-color:#92278F"/>
	</linearGradient>
	<path id="XMLID_4_" class="st1" d="M787.1,340.5c-1.5-4-4-6.8-7.8-8.4c-3.7-1.6-8.1-1.4-13.1,0.6c-5,2-9.7,6.6-13.9,13.7
		c-0.8,1.1-2.2,3.1-4.2,6c-2,2.9-4.4,6.3-7.2,10.1c-2.8,3.8-5.8,8-9,12.3s-6.4,8.6-9.6,12.5c-3.2,4.5-6.3,8.4-9.4,11.5
		c-3.1,3.2-5.6,5.4-7.8,6.6c-2.1,1.2-3.6,1-4.4-0.6s-0.7-5.2,0.4-10.7c0.8-3.7,2-8.6,3.6-14.7c1.6-6.1,4.4-15.3,8.4-27.5
		c6.9-21.8,9.2-39.7,7-53.9c-2.3-14.2-7.5-24-15.7-29.5c-8.2-5.4-18.6-6.2-31.2-2.4c-12.6,3.8-25.7,12.7-39.2,26.5
		c1.3-4.2,3.7-9.8,7.2-16.5c3.4-6.8,7.4-14.3,11.9-22.5c4.5-8.2,9.4-16.8,14.7-25.7c5.3-8.9,10.4-17.5,15.3-25.9
		c4.9-8.4,9.6-16.1,13.9-23.3c4.4-7.2,7.9-13.1,10.5-17.9c1.9-3.4,0.2-6.6-5-9.4c-5.2-2.8-11.4-4.9-18.7-6.4
		c-7.3-1.5-14.7-2.1-22.1-1.8c-7.4,0.3-12.5,1.6-15.1,4c-5.8,5.6-12.6,14.7-20.3,27.3c-2.8,4.7-5.7,9.6-8.6,14.8
		c1.4,5,2.2,10.3,2.2,16.1c0,13.5-4.8,27.4-14.3,41.6c-7.4,11-17,21.2-28.8,30.5c-7.1,17.7-13.6,35.5-19.5,53.2
		c-6.5,19.4-12,38-16.5,55.9c-4.5,17.9-7.3,33.8-8.4,47.6c1.1,4.2,2.6,7.7,4.6,10.3c2,2.7,5.2,5.1,9.6,7.4
		c4.4,2.3,10.1,4.4,17.1,6.6c7,2.1,16,4.8,26.9,8c-0.8-6.1-1.1-13.5-0.8-22.1c0.3-8.6,1.1-17.6,2.6-27.1c1.5-9.4,3.6-18.8,6.4-28.3
		c2.8-9.4,6.2-18.3,10.1-26.7c4-8.4,8.6-15.6,13.9-21.7c5.3-6.1,11.3-10.6,17.9-13.5c5.8-2.4,10.3-3.9,13.3-4.6c3-0.7,5-0.3,5.8,1
		c0.8,1.3,0.7,3.8-0.4,7.4c-1.1,3.6-2.7,8.4-4.8,14.5c-2.4,6.1-5,12.9-8,20.5c-2.9,7.6-5.6,15.3-8,23.3c-2.4,8-4.3,15.9-5.8,23.7
		c-1.5,7.8-1.9,15.1-1.4,21.7c0.3,3.5,1,6.8,2.2,10.1c1.2,3.3,3,6.4,5.4,9.2c2.4,2.8,5.5,5.3,9.4,7.6c3.8,2.3,8.7,3.9,14.5,5
		c14.1,2.4,26.6,1.1,37.6-4c11-5,21.3-12.7,30.8-23.1c9.6-10.3,18.6-22.9,27.3-37.8c8.6-14.9,17.6-30.9,26.9-48.2
		C788.1,348.9,788.5,344.5,787.1,340.5z"/>
	<linearGradient id="XMLID_26_" gradientUnits="userSpaceOnUse" x1="765.6335" y1="368.4001" x2="986.5012" y2="368.4001">
		<stop  offset="0" style="stop-color:#B978B3"/>
		<stop  offset="0.209" style="stop-color:#AD63A8"/>
		<stop  offset="0.5525" style="stop-color:#9E459A"/>
		<stop  offset="0.8283" style="stop-color:#952F92"/>
		<stop  offset="1" style="stop-color:#92278F"/>
	</linearGradient>
	<path id="XMLID_6_" class="st2" d="M985.9,340.6c-1.3-4.6-3.8-7.8-7.4-9.6c-3.6-1.7-7.7-1.7-12.3,0c-4.6,1.7-8.6,5.6-11.7,11.7
		c-1.3,1.6-2.9,4-4.8,7.4c-1.9,3.3-3.8,6.8-6,10.5c-2.1,3.7-4.4,7.6-7,11.5c-2.5,4-5,7.6-7.4,10.7c-1.1,1.3-2.6,2.7-4.6,4
		c-2,1.3-3.9,0.8-5.8-1.6c2.9-4,6.1-9.9,9.6-17.7c3.4-7.8,5.9-15.9,7.4-24.1c1.5-8.2,1.4-15.9-0.2-22.9c-1.6-7-6-11.9-13.1-14.5
		c-1.3-13-6.6-22.7-15.7-29.1c-9.2-6.4-20.1-9.6-32.8-9.6c-5.6,0-11.5,0.8-17.7,2.4c-6.2,1.6-12.7,4.4-19.5,8.6
		c-6.8,4.1-13.8,9.8-21.1,17.1c-7.3,7.3-14.8,16.5-22.5,27.7c-1.7,2.7-3.4,5.6-5,8.5c2.7,1.7,4.7,4.1,5.9,7.4c1.5,4,1,8.4-1.4,13.1
		c-9.3,17.2-18.2,33.2-26.8,48c-0.5,5.5-0.6,10.9-0.2,16c1.1,10.6,4.6,20.2,10.5,28.9c6,8.6,15.3,15.3,28.1,20.1h-0.4
		c8,3.4,16.3,4.6,25.1,3.6c8.8-1.1,17.2-3.6,25.5-7.6c8.2-4,15.9-9,23.1-14.9c7.2-6,13.3-12.3,18.3-18.9c10.1,4.5,20.2,5.2,30.4,2.2
		c10.2-3,18.8-9.2,25.7-18.5c2.4-3.4,4.6-6.9,6.8-10.3c2.1-3.4,4.3-7.2,6.6-11.3c2.3-4.1,4.8-8.8,7.6-13.9c2.8-5.2,6-11.2,9.8-18.1
		C986.2,350.8,987.3,345.2,985.9,340.6z M863.4,335.6c-3.7,5.6-6.2,11.7-7.4,18.3c-1.2,6.6-1.1,13.5,0.4,20.7
		c1.5,7.2,4,14.1,7.8,20.7c-1.9,2.7-3.8,5.6-6,8.8c-2.1,3.2-4.3,6.2-6.6,9.2c-2.3,2.9-4.5,5.4-6.8,7.4c-2.3,2-4.2,3-5.8,3
		c-4.8,0-8-2.6-9.8-7.8c-1.7-5.2-2.2-11.7-1.4-19.5c0.8-7.8,2.5-16.3,5-25.3c2.5-9,5.6-17.5,9.4-25.5c3.7-8,7.8-14.7,12.1-20.3
		c4.4-5.6,8.7-8.6,12.9-9.2c0.8,1.3,2.1,2.4,4,3.2c1.9,0.8,3.8,1.7,6,2.8h2C872.4,325.5,867.1,330,863.4,335.6z"/>
	<linearGradient id="XMLID_27_" gradientUnits="userSpaceOnUse" x1="1103.139" y1="366.1672" x2="1323.9749" y2="366.1672">
		<stop  offset="0" style="stop-color:#B978B3"/>
		<stop  offset="0.209" style="stop-color:#AD63A8"/>
		<stop  offset="0.5525" style="stop-color:#9E459A"/>
		<stop  offset="0.8283" style="stop-color:#952F92"/>
		<stop  offset="1" style="stop-color:#92278F"/>
	</linearGradient>
	<path id="XMLID_10_" class="st3" d="M1323.4,338.3c-1.3-4.6-3.8-7.8-7.4-9.6c-3.6-1.7-7.7-1.7-12.3,0c-4.6,1.7-8.6,5.6-11.7,11.7
		c-1.3,1.6-2.9,4-4.8,7.4c-1.9,3.3-3.8,6.8-6,10.5c-2.1,3.7-4.4,7.6-7,11.5c-2.5,4-5,7.6-7.4,10.7c-1.1,1.3-2.6,2.7-4.6,4
		c-2,1.3-3.9,0.8-5.8-1.6c2.9-4,6.1-9.9,9.6-17.7c3.4-7.8,5.9-15.9,7.4-24.1c1.5-8.2,1.4-15.9-0.2-22.9c-1.6-7-6-11.9-13.1-14.5
		c-1.3-13-6.6-22.7-15.7-29.1s-20.1-9.6-32.8-9.6c-5.6,0-11.5,0.8-17.7,2.4c-6.2,1.6-12.7,4.4-19.5,8.6c-6.8,4.1-13.8,9.8-21.1,17.1
		c-7.3,7.3-14.8,16.5-22.5,27.7c-2.9,4.6-5.7,9.6-8.3,14.9c2.5,0.3,4.8,1.2,6.9,2.7c3.3,2.4,5.6,5.8,6.8,10.3
		c1.2,4.5,0.3,8.9-2.6,13.1c-6.1,9.3-12.5,19.6-19.3,30.8c-3.5,5.8-7.2,11.5-11.1,16.9c0,1.4,0.1,2.9,0.2,4.3
		c1.1,10.6,4.6,20.2,10.5,28.9c6,8.6,15.3,15.3,28.1,20.1h-0.4c8,3.4,16.3,4.6,25.1,3.6c8.8-1.1,17.2-3.6,25.5-7.6
		c8.2-4,15.9-9,23.1-14.9c7.2-6,13.3-12.3,18.3-18.9c10.1,4.5,20.2,5.2,30.4,2.2c10.2-3,18.8-9.2,25.7-18.5
		c2.4-3.4,4.6-6.9,6.8-10.3c2.1-3.4,4.3-7.2,6.6-11.3c2.3-4.1,4.8-8.8,7.6-13.9c2.8-5.2,6-11.2,9.8-18.1
		C1323.7,348.6,1324.7,343,1323.4,338.3z M1200.8,333.3c-3.7,5.6-6.2,11.7-7.4,18.3c-1.2,6.6-1.1,13.5,0.4,20.7
		c1.5,7.2,4,14.1,7.8,20.7c-1.9,2.7-3.8,5.6-6,8.8c-2.1,3.2-4.3,6.2-6.6,9.2c-2.3,2.9-4.5,5.4-6.8,7.4c-2.3,2-4.2,3-5.8,3
		c-4.8,0-8-2.6-9.8-7.8c-1.7-5.2-2.2-11.7-1.4-19.5c0.8-7.8,2.5-16.3,5-25.3c2.5-9,5.6-17.5,9.4-25.5c3.7-8,7.8-14.7,12.1-20.3
		c4.4-5.6,8.7-8.6,12.9-9.2c0.8,1.3,2.1,2.4,4,3.2c1.9,0.8,3.8,1.7,6,2.8h2C1209.9,323.3,1204.6,327.8,1200.8,333.3z"/>
	<linearGradient id="XMLID_28_" gradientUnits="userSpaceOnUse" x1="958.6099" y1="333.9846" x2="1128.2603" y2="333.9846">
		<stop  offset="0" style="stop-color:#B978B3"/>
		<stop  offset="0.209" style="stop-color:#AD63A8"/>
		<stop  offset="0.5525" style="stop-color:#9E459A"/>
		<stop  offset="0.8283" style="stop-color:#952F92"/>
		<stop  offset="1" style="stop-color:#92278F"/>
	</linearGradient>
	<path id="XMLID_5_" class="st4" d="M1127.7,350.6c-1.2-4.5-3.5-8-6.8-10.3c-3.3-2.4-7.2-3.2-11.5-2.6c-4.4,0.7-8.3,4-11.7,10.1
		c-5.6,9-11.1,17.1-16.5,24.3c-5.4,7.2-10.3,13.3-14.7,18.5c-4.4,5.2-8.1,9.2-11.1,12.1c-3.1,2.9-5.1,4.6-6.2,5.2
		c-5.3,3.7-9.5,5.6-12.5,5.8c-3.1,0.1-5.2-0.9-6.6-3.2c-1.3-2.3-2-5.3-2-9.2c0-3.8,0.3-8,0.8-12.5c0.8-7.4,2.8-15.2,6-23.3
		c3.2-8.1,6.6-15.9,10.1-23.5s7.1-14.5,10.5-20.7c3.4-6.2,6-11.1,7.6-14.5c2.6,0,5.8,0.1,9.4,0.4c3.6,0.3,6.3,0.1,8.2-0.4
		c2.6-0.3,5.5-1.5,8.6-3.8c3-2.3,5.8-4.9,8.2-8c2.4-3,4.3-6.2,5.8-9.4c1.5-3.2,2.1-6,1.8-8.4c-0.3-2.1-1.7-3.6-4.2-4.4
		c-2.5-0.8-8.7-1.2-18.5-1.2c4.8-9.8,8.9-18,12.3-24.7c3.4-6.6,6.2-12.1,8.4-16.5c2.1-4.4,3.7-7.7,4.8-9.9c1.1-2.3,1.9-3.9,2.4-5
		c-0.3-3.2-2.3-5.8-6.2-8c-3.8-2.1-8.6-3.8-14.3-5c-5.7-1.2-11.9-1.9-18.7-2.2c-6.8-0.3-13.2-0.1-19.3,0.6c-6.1,0.7-11.4,1.7-15.9,3
		c-4.5,1.3-7.4,2.9-8.8,4.8c3.4,1.3,6.2,3.2,8.2,5.6c2,2.4,1.8,6.9-0.6,13.5c-2.9,7.2-6.2,14.3-9.8,21.5
		c-3.6,7.2-7.2,14.6-10.9,22.3H1001c-2.1,0-4.8,1.9-8.2,5.6c-3.3,3.7-6,7.8-8.2,12.1s-3.2,8.4-3.4,11.9c-0.1,3.6,1.9,5.4,6.2,5.4h10
		c-2.9,5.8-6.3,12.7-10.1,20.5c-0.7,1.5-1.5,3-2.2,4.6c3.3,1.8,5.6,4.9,6.8,9.2c1.3,4.6,0.3,10.3-3.2,16.9c-3.7,6.9-7,12.9-9.8,18.1
		c-2.8,5.2-5.3,9.8-7.6,13.9c-2.3,4.1-4.4,7.9-6.6,11.3c-1.8,2.9-3.7,5.8-5.6,8.6c-1.9,18.5,0.9,32.6,8.5,42.2
		c8.1,10.2,21.2,15.3,39.2,15.3c2.1,0,4.1-0.1,6-0.4c1.9-0.3,3.7-0.5,5.6-0.8c13.8-1.9,25.9-6.5,36.4-13.9
		c10.5-7.4,19.9-16.1,28.3-26.1c8.4-10,15.9-20.6,22.7-31.8c6.8-11.3,13.2-21.6,19.3-30.8C1128.1,359.5,1128.9,355.1,1127.7,350.6z"
		/>
	<linearGradient id="XMLID_29_" gradientUnits="userSpaceOnUse" x1="1299.4033" y1="356.4814" x2="1497.7583" y2="356.4814">
		<stop  offset="0" style="stop-color:#B978B3"/>
		<stop  offset="0.209" style="stop-color:#AD63A8"/>
		<stop  offset="0.5525" style="stop-color:#9E459A"/>
		<stop  offset="0.8283" style="stop-color:#952F92"/>
		<stop  offset="1" style="stop-color:#92278F"/>
	</linearGradient>
	<path id="XMLID_7_" class="st5" d="M1496.3,358.4c-2.1-3.6-5.2-6.1-9.2-7.6c-4-1.5-8.3-1.3-12.9,0.4c-4.6,1.7-8.6,5.9-11.7,12.5
		c-0.5,0.8-1.7,2.6-3.4,5.4c-1.7,2.8-3.8,6-6.2,9.8c-2.4,3.7-5,7.6-7.8,11.7c-2.8,4.1-5.5,7.8-8.2,10.9c-1.3,1.3-2.5,2.7-3.4,4
		c-0.9,1.3-1.9,2.7-3,4c-1.1,0.8-2,1.3-2.8,1.6c-0.8,0.3-2-0.3-3.6-1.6c-3.2-2.1-4.4-5.9-3.6-11.3c0.8-5.4,2.5-11.2,5.2-17.3
		c2.4-6.4,5.3-12.4,8.8-18.1c3.4-5.7,7-11.4,10.7-17.1c3.7-5.7,7.4-11.5,10.9-17.5c3.6-6,6.8-12.1,9.8-18.5
		c0.8-3.4-1.7-7.1-7.4-10.9c-5.7-3.8-12.2-7.2-19.5-10c-7.3-2.8-14.4-4.6-21.3-5.4c-6.9-0.8-11.3,0-13.1,2.4l-9.2,10.7
		c1.6-4,3.3-8.7,5.2-14.1c1.9-5.4,2.8-10.7,3-15.9c0.1-5.2-1.1-9.9-3.6-14.1c-2.5-4.2-7.2-7.2-14.1-8.8c-5-1.3-10.3-0.5-15.9,2.4
		c-5.6,2.9-10.9,7.1-16.1,12.5c-5.2,5.4-10,11.7-14.3,18.9s-7.9,14.5-10.5,22.1s-4.2,14.9-4.8,21.9c-0.4,4.7,0,8.8,0.9,12.5
		c1.3,1.6,2.3,3.7,3,6.1c1.3,4.6,0.3,10.3-3.2,16.9c-3.7,6.9-7,12.9-9.8,18.1c-2.8,5.2-5.3,9.8-7.6,13.9c-2.3,4.1-4.4,7.9-6.6,11.3
		c-0.6,0.9-1.2,1.9-1.8,2.8c1.5,2.7,3.7,4.7,6.6,5.8c3.7,1.5,7.9,1.3,12.5-0.4c4.6-1.7,8.6-5.5,11.7-11.3
		c5.6-8.2,9.8-14.5,12.5-18.7c2.8-4.2,5-7.6,6.8-9.9c1.7-2.4,3.2-4.6,4.6-6.8c1.3-2.1,3.3-5.3,6-9.6c3.7,0.3,6.8-0.1,9.4-1
		c2.5-0.9,5.6-1.8,9.4-2.6c-5.8,11.7-11.2,23.4-16.1,35.2c-4.9,11.8-7.1,24.7-6.6,38.8c0.5,11.7,2.8,21.9,7,30.6
		c4.1,8.8,12,14.1,23.7,15.9c9.3,1.6,18,0.9,26.1-2c8.1-2.9,15.7-7.3,22.9-13.1c11.9-9.8,22.8-22.5,32.6-38
		c9.8-15.5,19-31,27.5-46.4C1498.3,365.7,1498.4,361.9,1496.3,358.4z"/>
	<linearGradient id="XMLID_30_" gradientUnits="userSpaceOnUse" x1="1475.5826" y1="370.8059" x2="1726.6512" y2="370.8059">
		<stop  offset="0" style="stop-color:#B978B3"/>
		<stop  offset="0.209" style="stop-color:#AD63A8"/>
		<stop  offset="0.5525" style="stop-color:#9E459A"/>
		<stop  offset="0.8283" style="stop-color:#952F92"/>
		<stop  offset="1" style="stop-color:#92278F"/>
	</linearGradient>
	<path id="XMLID_12_" class="st6" d="M1725.7,342.3c-1.6-4.4-4.3-7.4-8.2-9c-3.8-1.6-8.3-1.2-13.3,1.2c-5,2.4-9.8,7.8-14.3,16.3
		c-0.8,1.3-2.1,3.5-3.8,6.6c-1.7,3.1-3.8,6.5-6.2,10.3c-2.4,3.8-4.9,7.9-7.6,12.1c-2.7,4.2-5.3,8.1-8,11.5
		c-2.7,3.7-5.5,7.3-8.6,10.7c-3.1,3.5-5.7,5.6-8,6.4c-2.3,0.8-4-0.3-5.2-3.4c-1.2-3-1.4-9.2-0.6-18.5c0.8-9.8,2.9-20.7,6.4-32.6
		c3.4-11.9,7.8-24.3,13.1-37c-1.3-3.4-4.2-7.2-8.8-11.1c-4.5-4-9.4-6.2-14.7-6.8c-0.5-4.8-2.4-8.8-5.6-12.1c-3.2-3.3-7.1-6-11.7-8.2
		c-4.6-2.1-9.6-3.6-14.7-4.6c-5.2-0.9-9.9-1.4-14.1-1.4c-5.8,0-12.1,0.9-18.9,2.6c-6.8,1.7-13.9,4.8-21.3,9.2
		c-7.4,4.4-15,10.3-22.7,17.7c-7.7,7.4-15.3,16.7-22.7,27.9c-4.7,7.2-8.7,14.2-12.3,21c3.6,1.5,6.3,3.9,8.3,7.2
		c2.1,3.6,2,7.4-0.4,11.3c-8.2,14.8-17,29.7-26.4,44.7c0,2.2,0,4.4,0.2,6.5c1.3,11.9,5.4,22,12.3,30.2c6.9,8.2,16.6,13.8,29.1,16.7
		c6.6,1.3,13.3,1.1,20.1-0.6c6.8-1.7,13.3-4.3,19.5-7.8c6.2-3.4,12.2-7.6,17.9-12.3c5.7-4.8,10.8-9.6,15.3-14.3
		c0,8.5,3.2,15.3,9.8,20.3c6.5,5,14.1,7.6,22.9,7.6c7.2,0,13.8-1.1,19.9-3.4c6.1-2.3,11.8-5.3,17.1-9.2c5.3-3.8,10.2-8.4,14.7-13.5
		c4.5-5.2,8.9-10.7,13.1-16.5c6.9-9.8,13.3-19.9,19.1-30.2c5.8-10.3,11.8-20.7,17.9-31C1726.9,351.5,1727.3,346.7,1725.7,342.3z
		 M1615.1,317c-3.2,5.6-7.1,12.3-11.7,20.1c-4.6,7.8-9.6,15.9-14.7,24.3c-5.2,8.4-10.5,16.5-16.1,24.3c-5.6,7.8-10.7,14.6-15.3,20.3
		c-4.6,5.7-8.7,10-12.1,12.9c-3.5,2.9-5.7,3.5-6.8,1.6c-1.6-2.1-2.5-5.8-2.8-10.9c-0.3-5.2,0.5-11.1,2.4-17.9
		c1.9-6.8,4.6-14.1,8.4-21.9c3.7-7.8,8.8-15.5,15.1-22.9c9.3-12.2,17.6-21.4,24.9-27.7c7.3-6.2,13.2-10.4,17.7-12.5
		c3.2-1.6,6.4-1.5,9.8,0.2C1617,308.6,1617.4,312,1615.1,317z"/>
	<linearGradient id="XMLID_31_" gradientUnits="userSpaceOnUse" x1="1698.4569" y1="333.9846" x2="1868.1061" y2="333.9846">
		<stop  offset="0" style="stop-color:#B978B3"/>
		<stop  offset="0.209" style="stop-color:#AD63A8"/>
		<stop  offset="0.5525" style="stop-color:#9E459A"/>
		<stop  offset="0.8283" style="stop-color:#952F92"/>
		<stop  offset="1" style="stop-color:#92278F"/>
	</linearGradient>
	<path id="XMLID_11_" class="st7" d="M1867.6,350.6c-1.2-4.5-3.5-8-6.8-10.3c-3.3-2.4-7.2-3.2-11.5-2.6c-4.4,0.7-8.3,4-11.7,10.1
		c-5.6,9-11.1,17.1-16.5,24.3c-5.4,7.2-10.3,13.3-14.7,18.5c-4.4,5.2-8.1,9.2-11.1,12.1c-3.1,2.9-5.1,4.6-6.2,5.2
		c-5.3,3.7-9.5,5.6-12.5,5.8c-3.1,0.1-5.2-0.9-6.6-3.2c-1.3-2.3-2-5.3-2-9.2c0-3.8,0.3-8,0.8-12.5c0.8-7.4,2.8-15.2,6-23.3
		c3.2-8.1,6.6-15.9,10.1-23.5s7.1-14.5,10.5-20.7c3.4-6.2,6-11.1,7.6-14.5c2.6,0,5.8,0.1,9.4,0.4c3.6,0.3,6.3,0.1,8.2-0.4
		c2.6-0.3,5.5-1.5,8.6-3.8c3-2.3,5.8-4.9,8.2-8c2.4-3,4.3-6.2,5.8-9.4c1.5-3.2,2.1-6,1.8-8.4c-0.3-2.1-1.7-3.6-4.2-4.4
		c-2.5-0.8-8.7-1.2-18.5-1.2c4.8-9.8,8.9-18,12.3-24.7c3.4-6.6,6.2-12.1,8.4-16.5c2.1-4.4,3.7-7.7,4.8-9.9c1.1-2.3,1.9-3.9,2.4-5
		c-0.3-3.2-2.3-5.8-6.2-8c-3.8-2.1-8.6-3.8-14.3-5c-5.7-1.2-11.9-1.9-18.7-2.2c-6.8-0.3-13.2-0.1-19.3,0.6c-6.1,0.7-11.4,1.7-15.9,3
		c-4.5,1.3-7.4,2.9-8.8,4.8c3.4,1.3,6.2,3.2,8.2,5.6c2,2.4,1.8,6.9-0.6,13.5c-2.9,7.2-6.2,14.3-9.8,21.5s-7.2,14.6-10.9,22.3h-12.7
		c-2.1,0-4.8,1.9-8.2,5.6c-3.3,3.7-6,7.8-8.2,12.1s-3.2,8.4-3.4,11.9c-0.1,3.6,1.9,5.4,6.2,5.4h10c-2.9,5.8-6.3,12.7-10.1,20.5
		c-0.8,1.7-1.6,3.4-2.4,5.1c0,0,0,0,0,0c3.8,1.6,6.6,4.6,8.2,9c1.6,4.4,1.2,9.2-1.2,14.5c-6.1,10.3-12.1,20.7-17.9,31
		c-4.6,8.2-9.6,16.2-14.8,24c-1.8,18.1,1.1,31.9,8.6,41.4c8.1,10.2,21.2,15.3,39.2,15.3c2.1,0,4.1-0.1,6-0.4
		c1.9-0.3,3.7-0.5,5.6-0.8c13.8-1.9,25.9-6.5,36.4-13.9c10.5-7.4,19.9-16.1,28.3-26.1c8.4-10,15.9-20.6,22.7-31.8
		c6.8-11.3,13.2-21.6,19.3-30.8C1867.9,359.5,1868.8,355.1,1867.6,350.6z"/>
	<g id="XMLID_3_">
		<linearGradient id="XMLID_35_" gradientUnits="userSpaceOnUse" x1="1922.236" y1="233.7156" x2="1987.2998" y2="233.7156">
			<stop  offset="0" style="stop-color:#B978B3"/>
			<stop  offset="0.209" style="stop-color:#AD63A8"/>
			<stop  offset="0.5525" style="stop-color:#9E459A"/>
			<stop  offset="0.8283" style="stop-color:#952F92"/>
			<stop  offset="1" style="stop-color:#92278F"/>
		</linearGradient>
		<path id="XMLID_15_" class="st8" d="M1935.6,257.2c5,3.7,10.6,6.3,16.7,7.8c6.1,1.5,10.6,0.5,13.5-3l19.5-32.2
			c0.3-0.3,0.7-0.9,1.2-2c0.5-1.1,0.8-2.3,0.8-3.8c0-1.5-0.5-3-1.6-4.8c-1.1-1.7-2.9-3.4-5.6-5h0.8c-5.3-3.7-10.4-6.7-15.3-9
			c-4.9-2.3-10.4-3.4-16.5-3.4c-9,0-14.9,1.9-17.5,5.6c-2.9,3.5-5.1,7.4-6.6,11.7c-1.5,4.4-2.3,8.7-2.6,12.9
			c-0.5,5,0.1,9.6,1.8,13.7C1925.9,249.9,1929.7,253.7,1935.6,257.2z"/>
		<linearGradient id="XMLID_36_" gradientUnits="userSpaceOnUse" x1="1847.0341" y1="365.8059" x2="2001.4379" y2="365.8059">
			<stop  offset="0" style="stop-color:#B978B3"/>
			<stop  offset="0.209" style="stop-color:#AD63A8"/>
			<stop  offset="0.5525" style="stop-color:#9E459A"/>
			<stop  offset="0.8283" style="stop-color:#952F92"/>
			<stop  offset="1" style="stop-color:#92278F"/>
		</linearGradient>
		<path id="XMLID_20_" class="st9" d="M2000.7,340c-1.5-4.5-4-7.7-7.8-9.6c-3.7-1.9-8.1-1.9-13.1,0c-5,1.9-9.7,6.6-13.9,14.3
			c-5,9-11,18.6-17.9,28.7c-6.9,10.1-13.7,18.6-20.3,25.5c-3.5,3.7-6.5,6.5-9.2,8.4c-2.7,1.9-4.8,2.6-6.4,2.2
			c-1.6-0.4-2.5-2.1-2.8-5.2c-0.3-3,0.4-7.6,2-13.7c1.9-8,5-17.2,9.6-27.9c4.5-10.6,9.4-21.1,14.7-31.4c5.3-10.3,10.6-20,15.9-28.9
			c5.3-8.9,10-15.7,13.9-20.5c-1.1-1.3-3.6-2.9-7.6-4.8c-4-1.9-8.9-3.6-14.7-5.2c-5.8-1.6-12.3-2.8-19.3-3.8c-7-0.9-14.1-1-21.3-0.2
			c-4.8,9.3-10.5,20.6-17.3,33.8c-5.8,11.4-11.3,23.2-16.4,35.5c3.3,2.4,5.5,5.8,6.7,10.3c1.2,4.5,0.3,8.9-2.6,13.1
			c-6.1,9.3-12.5,19.6-19.3,30.8c-1.5,2.5-3.1,5-4.7,7.5c-1.7,9.5-2.3,18.3-1.8,26.5c1.3,11.9,5.9,21.4,13.7,28.3
			c7.8,6.9,18,10.3,30.4,10.3c11.9,0,22.6-2.7,32-8.2c9.4-5.4,18.2-13,26.5-22.7c8.2-9.7,16.2-21.3,24.1-34.8
			c7.8-13.5,16.1-28.4,24.9-44.6C2001.5,349.2,2002.1,344.5,2000.7,340z"/>
		<linearGradient id="XMLID_37_" gradientUnits="userSpaceOnUse" x1="1964.1301" y1="362.5779" x2="2222.3918" y2="362.5779">
			<stop  offset="0" style="stop-color:#B978B3"/>
			<stop  offset="0.209" style="stop-color:#AD63A8"/>
			<stop  offset="0.5525" style="stop-color:#9E459A"/>
			<stop  offset="0.8283" style="stop-color:#952F92"/>
			<stop  offset="1" style="stop-color:#92278F"/>
		</linearGradient>
		<path id="XMLID_19_" class="st10" d="M2222.1,342.1c-0.9-4.8-3.1-8.2-6.4-10.3c-3.3-2.1-7.5-2.4-12.5-0.8c-5,1.6-10,6-14.7,13.1
			c-4.2,7.2-8.9,14.5-13.9,21.9c-5,7.4-10.2,14.6-15.5,21.5c-4,4.8-7.5,8.6-10.5,11.3c-3.1,2.8-5.4,4-7,3.6
			c-1.6-0.4-2.3-2.8-2.2-7.4c0.1-4.5,1.5-11.7,4.2-21.5c2.1-6.9,4.6-13.9,7.6-20.9c2.9-7,5.5-14.1,7.8-21.3
			c2.3-7.2,3.8-14.5,4.6-21.9c0.8-7.4,0-15-2.4-22.7c-2.9-8.2-7.8-14.1-14.5-17.7s-14.3-5.6-22.5-6c-8.2-0.4-16.5,0.7-24.7,3.2
			c-8.2,2.5-15.3,5.8-21.1,9.8c0.3-1.6,0.6-2.7,1-3.4c0.4-0.7,0.6-1.3,0.6-1.8c0.3-1.9-1-3.4-3.8-4.8c-2.8-1.3-6.3-2.3-10.5-2.8
			c-4.2-0.5-9-0.8-14.1-0.8s-10.1,0.2-14.7,0.6c-4.6,0.4-8.6,1-11.9,1.8c-3.3,0.8-5.2,1.7-5.8,2.8h0.8c-0.8,0.8-2.7,4.6-5.8,11.3
			c-3.1,6.8-6.6,15.2-10.5,25.3c-2.8,7.2-5.8,14.9-8.8,23.2c2.4-0.1,4.7,0.3,6.7,1.4c3.7,1.9,6.3,5,7.8,9.6
			c1.5,4.5,0.9,9.2-1.8,13.9c-8.8,16.2-17.1,31-24.9,44.6c-5.6,9.7-11.3,18.4-17.1,26.1c-0.1,0.8-0.1,1.6-0.1,2.3
			c-2.1,8-1,14.4,3.4,19.3c4.4,4.9,10,8.7,16.9,11.3c6.9,2.7,14.1,4.4,21.5,5.4c7.4,0.9,13.3,1.4,17.5,1.4c0.8-10.1,2.6-21.1,5.4-33
			s6.1-23.9,10-36c3.8-12.1,8.3-23.5,13.3-34.4c5-10.9,10.3-20.2,15.7-27.9c5.4-7.7,10.9-13.4,16.5-17.1c5.6-3.7,11-4.2,16.3-1.6
			c2.4,1.3,3.4,3.7,3,7c-0.4,3.3-1.5,7.4-3.4,12.3c-1.9,4.9-4.2,10.4-7.2,16.5c-2.9,6.1-5.7,12.5-8.4,19.1
			c-4.5,12.7-8,25.3-10.5,37.6c-2.5,12.3-2.1,23.2,1.4,32.4c3.2,9,8.4,15.5,15.5,19.3c7.2,3.8,14.9,5.6,23.3,5.4
			c8.4-0.3,16.7-2.1,25.1-5.6c8.4-3.4,15.5-8.1,21.3-13.9c5.6-5.8,10.6-11.7,15.1-17.5c4.5-5.8,9-12.1,13.3-18.9s8.8-14.1,13.3-22.1
			c4.5-8,9.6-17,15.1-27.1C2221.9,351.9,2223,346.9,2222.1,342.1z"/>
		<linearGradient id="XMLID_38_" gradientUnits="userSpaceOnUse" x1="2211.0005" y1="398.6205" x2="2441.7622" y2="398.6205">
			<stop  offset="0" style="stop-color:#B978B3"/>
			<stop  offset="0.209" style="stop-color:#AD63A8"/>
			<stop  offset="0.5525" style="stop-color:#9E459A"/>
			<stop  offset="0.8283" style="stop-color:#952F92"/>
			<stop  offset="1" style="stop-color:#92278F"/>
		</linearGradient>
		<path id="XMLID_24_" class="st11" d="M2441.1,302.1c-1.5-4.1-4.1-7-8-8.6c-3.8-1.6-8.1-1.7-12.7-0.2c-4.6,1.5-8.3,5-10.9,10.5
			c-0.5,1.3-2.5,4.7-6,10.1c-3.5,5.4-7.4,11.5-11.7,18.3c-4.4,6.8-8.7,13.3-12.9,19.5c-4.2,6.2-7.4,10.8-9.6,13.7
			c1.3-6.1,3.5-12.9,6.6-20.3c3-7.4,6.2-15,9.4-22.7c3.2-7.7,6.2-15.2,9-22.5c2.8-7.3,4.6-13.9,5.4-19.7c-1.9-4.2-5.6-8.7-11.1-13.3
			c-5.6-4.6-11.4-7.4-17.5-8.2c0-5.8-1.5-10.5-4.4-14.1c-2.9-3.6-6.6-6.4-10.9-8.4c-4.4-2-9.2-3.3-14.5-4c-5.3-0.7-10.3-1-15.1-1
			c-5.6,0-11.7,0.9-18.5,2.6c-6.8,1.7-13.9,4.8-21.3,9.2c-7.4,4.4-15.1,10.3-23.1,17.7c-8,7.4-15.7,16.7-23.1,27.9
			c-4.2,6.6-8.5,14.2-12.7,22.7c-3.2,6.4-6,13-8.5,19.6c1,0.3,1.8,0.7,2.7,1.3c3.3,2.1,5.4,5.6,6.4,10.3c0.9,4.8-0.2,9.8-3.4,15.1
			c-4.8,8.8-9.3,16.7-13.3,23.9c0.4,2.8,1,5.5,1.8,8.2c2.4,8,6.6,15.1,12.7,21.5c6.1,6.4,14.9,11.4,26.3,15.1c9,1.3,17.7,0.7,26.1-2
			c8.4-2.6,16.4-6.8,24.1-12.3c-10.9,14.9-20.8,28.9-29.9,42c-9,13.1-16.5,25.5-22.5,37c-6,11.5-10.1,22.2-12.5,31.8
			c-2.4,9.7-2.4,18.4,0,26.1c2.4,5.6,6.6,9.8,12.5,12.5c6,2.8,12.3,4.2,19.1,4.2s13.3-1.3,19.5-3.8c6.2-2.5,10.9-6.4,14.1-11.7
			c11.1-25.5,19.9-45.6,26.3-60.5c6.4-14.9,11.2-26.3,14.5-34.2c3.3-8,5.4-13.3,6.4-15.9c0.9-2.7,1.4-4.4,1.4-5.2
			c10.3-7.2,19.6-15.4,27.9-24.7c8.2-9.3,15.8-19.1,22.7-29.5c6.9-10.3,13.3-21,19.1-31.8c5.8-10.9,11.8-21.5,17.9-31.8
			C2441.7,311.1,2442.5,306.2,2441.1,302.1z M2334.4,289.8c-4.4,8.1-9.1,16.5-14.1,25.3c-5,8.8-10.1,17.3-15.1,25.7
			c-5,8.4-9.8,15.7-14.1,21.9c-4.4,6.2-8.2,10.9-11.3,14.1c-3.2,3.2-5.3,4-6.4,2.4c-1.9-2.1-2.8-5.7-2.8-10.7c0-5,0.9-10.9,2.8-17.7
			c1.9-6.8,4.8-14,8.8-21.7c4-7.7,9.2-15.3,15.5-22.7c14.3-17.8,25.5-29.3,33.6-34.4c8.1-5.2,12.9-6.2,14.5-3
			C2342.6,274.7,2338.8,281.7,2334.4,289.8z"/>
	</g>
</g>
</svg>
